<svg width="188" height="190" viewBox="0 0 188 190" fill="none" xmlns="http://www.w3.org/2000/svg">
<mask id="path-1-inside-1_538_372" fill="white">
<path d="M12.7434 168.849C9.20047 168.842 5.72344 167.878 2.6707 166.056C2.24795 165.805 1.8794 165.471 1.58709 165.073C1.29478 164.675 1.08472 164.221 0.969471 163.739C0.854222 163.256 0.836153 162.755 0.916346 162.266C0.996539 161.776 1.17334 161.308 1.43619 160.889L80.343 34.8123L75.973 27.8008C74.6202 25.6406 73.7105 23.2264 73.2981 20.7023C72.8858 18.1781 72.9793 15.5957 73.573 13.1089C74.1667 10.6222 75.2485 8.28204 76.7538 6.22804C78.2592 4.17404 80.1573 2.44825 82.3349 1.15358C83.1487 0.671248 84.1153 0.527491 85.0315 0.752541C85.9477 0.977591 86.742 1.55391 87.2475 2.36029L93.9517 13.062L100.656 2.36029C101.161 1.55292 101.957 0.975914 102.874 0.750819C103.791 0.525723 104.758 0.670116 105.572 1.15358C107.752 2.44701 109.651 4.17206 111.159 6.22579C112.666 8.27952 113.749 10.6198 114.344 13.1071C114.939 15.5944 115.034 18.1777 114.622 20.7029C114.211 23.228 113.301 25.6432 111.949 27.8045L107.579 34.816L186.489 160.893C186.752 161.312 186.929 161.78 187.009 162.269C187.089 162.759 187.071 163.26 186.956 163.742C186.841 164.225 186.631 164.678 186.338 165.076C186.046 165.475 185.677 165.809 185.255 166.059C180.806 168.721 175.508 169.52 170.487 168.286C165.466 167.053 161.117 163.884 158.365 159.454L93.9517 56.5552L29.5423 159.45C27.7542 162.328 25.2756 164.699 22.3378 166.343C19.4001 167.987 16.0992 168.849 12.7434 168.849ZM9.89569 161.129C12.4442 161.728 15.1134 161.507 17.5321 160.497C19.9509 159.487 21.999 157.738 23.3916 155.494L90.8782 47.6875C91.2068 47.1624 91.661 46.73 92.1987 46.4304C92.7363 46.1307 93.34 45.9736 93.9536 45.9736C94.5671 45.9736 95.1708 46.1307 95.7084 46.4304C96.2461 46.73 96.7003 47.1624 97.0289 47.6875L164.516 155.494C165.908 157.739 167.956 159.488 170.375 160.498C172.794 161.508 175.463 161.728 178.011 161.129L100.175 36.7902C99.8047 36.1988 99.608 35.5128 99.608 34.8123C99.608 34.1118 99.8047 33.4257 100.175 32.8343L105.798 23.8523C107.143 21.6988 107.758 19.1591 107.548 16.6192C107.339 14.0793 106.316 11.6783 104.636 9.78136L97.0289 21.937C96.7003 22.4621 96.2461 22.8946 95.7084 23.1942C95.1708 23.4938 94.5671 23.6509 93.9536 23.6509C93.34 23.6509 92.7363 23.4938 92.1987 23.1942C91.661 22.8946 91.2068 22.4621 90.8782 21.937L83.2672 9.78136C81.5873 11.6783 80.5648 14.0793 80.3551 16.6192C80.1454 19.1591 80.76 21.6988 82.1055 23.8523L87.7318 32.8343C88.1024 33.4257 88.2991 34.1118 88.2991 34.8123C88.2991 35.5128 88.1024 36.1988 87.7318 36.7902L9.89569 161.129Z"/>
</mask>
<path d="M12.7434 168.849L12.7256 177.849L12.735 177.849H12.7444L12.7434 168.849ZM2.6707 166.056L7.28354 158.328L7.27099 158.32L7.25842 158.313L2.6707 166.056ZM1.43619 160.889L9.05875 165.674L9.06522 165.664L1.43619 160.889ZM80.343 34.8123L87.972 39.587L90.9541 34.8222L87.9809 30.0518L80.343 34.8123ZM75.973 27.8008L83.611 23.0404L83.6059 23.0322L83.6007 23.024L75.973 27.8008ZM82.3349 1.15358L77.7459 -6.58857L77.7357 -6.58249L82.3349 1.15358ZM87.2475 2.36029L94.8745 -2.41773L94.8732 -2.41978L87.2475 2.36029ZM93.9517 13.062L86.3248 17.84L93.9517 30.0146L101.579 17.84L93.9517 13.062ZM100.656 2.36029L108.283 7.13831L108.284 7.13652L100.656 2.36029ZM105.572 1.15358L100.977 8.89182L100.979 8.89316L105.572 1.15358ZM111.949 27.8045L104.32 23.0294L104.315 23.0367L104.311 23.0441L111.949 27.8045ZM107.579 34.816L99.9407 30.0555L96.9675 34.826L99.9498 39.5908L107.579 34.816ZM186.489 160.893L178.86 165.668L178.867 165.678L186.489 160.893ZM185.255 166.059L180.667 158.316L180.651 158.326L180.634 158.336L185.255 166.059ZM158.365 159.454L166.01 154.704L166.002 154.691L165.993 154.678L158.365 159.454ZM93.9517 56.5552L101.58 51.7798L93.9517 39.5931L86.3231 51.7799L93.9517 56.5552ZM29.5423 159.45L21.9136 154.675L21.9057 154.688L21.8978 154.7L29.5423 159.45ZM9.89569 161.129L2.26713 156.354L-4.40666 167.015L7.83774 169.891L9.89569 161.129ZM23.3916 155.494L15.763 150.719L15.7536 150.734L15.7443 150.749L23.3916 155.494ZM90.8782 47.6875L98.5068 52.463L98.5074 52.462L90.8782 47.6875ZM97.0289 47.6875L89.3997 52.462L89.4003 52.463L97.0289 47.6875ZM164.516 155.494L172.164 150.75L172.154 150.735L172.144 150.719L164.516 155.494ZM178.011 161.129L180.071 169.89L192.312 167.012L185.64 156.354L178.011 161.129ZM100.175 36.7902L107.804 32.0148L107.802 32.0118L100.175 36.7902ZM100.175 32.8343L107.802 37.6128L107.804 37.6097L100.175 32.8343ZM105.798 23.8523L113.427 28.6277L113.431 28.6212L105.798 23.8523ZM104.636 9.78136L111.374 3.81457L103.393 -5.19741L97.0071 5.00683L104.636 9.78136ZM97.0289 21.937L89.3998 17.1625L89.3997 17.1626L97.0289 21.937ZM93.9536 23.6509V32.6509V23.6509ZM90.8782 21.937L98.5074 17.1626L98.5063 17.1608L90.8782 21.937ZM83.2672 9.78136L90.8953 5.00519L84.5085 -5.19539L76.5294 3.81457L83.2672 9.78136ZM82.1055 23.8523L74.4729 28.6212L74.4783 28.6299L82.1055 23.8523ZM87.7318 32.8343L80.1046 37.6119L80.1051 37.6128L87.7318 32.8343ZM87.7318 36.7902L80.1051 32.0118L80.1033 32.0148L87.7318 36.7902ZM12.7613 159.849C10.8424 159.845 8.95186 159.324 7.28354 158.328L-1.94214 173.784C2.49502 176.432 7.5586 177.839 12.7256 177.849L12.7613 159.849ZM7.25842 158.313C7.88395 158.683 8.42078 159.173 8.84181 159.747L-5.66763 170.399C-4.66198 171.769 -3.38804 172.927 -1.91702 173.799L7.25842 158.313ZM8.84181 159.747C9.26265 160.32 9.56047 160.967 9.72303 161.647L-7.78409 165.83C-7.39103 167.475 -6.67309 169.03 -5.66763 170.399L8.84181 159.747ZM9.72303 161.647C9.88555 162.327 9.91083 163.032 9.79797 163.721L-7.96528 160.811C-8.23853 162.479 -8.1771 164.185 -7.78409 165.83L9.72303 161.647ZM9.79797 163.721C9.68509 164.41 9.43539 165.074 9.05874 165.674L-6.18636 156.104C-7.0887 157.542 -7.69201 159.143 -7.96528 160.811L9.79797 163.721ZM9.06522 165.664L87.972 39.587L72.7139 30.0376L-6.19284 156.115L9.06522 165.664ZM87.9809 30.0518L83.611 23.0404L68.3351 32.5612L72.705 39.5727L87.9809 30.0518ZM83.6007 23.024C82.8853 21.8815 82.4005 20.5986 82.1804 19.2513L64.4159 22.1533C65.0205 25.8542 66.3551 29.3997 68.3453 32.5776L83.6007 23.024ZM82.1804 19.2513C81.9603 17.9039 82.0103 16.5251 82.3269 15.1989L64.819 11.019C63.9482 14.6663 63.8113 18.4524 64.4159 22.1533L82.1804 19.2513ZM82.3269 15.1989C82.6435 13.8729 83.2188 12.6318 84.013 11.5482L69.4946 0.907853C67.2781 3.93227 65.6898 7.37144 64.819 11.019L82.3269 15.1989ZM84.013 11.5482C84.8069 10.4649 85.8021 9.56273 86.9342 8.88965L77.7357 -6.58249C74.5125 -4.66622 71.7114 -2.11685 69.4946 0.907853L84.013 11.5482ZM86.924 8.89572C85.7158 9.61182 84.2646 9.83171 82.8846 9.49272L87.1784 -7.98764C83.966 -8.77673 80.5815 -8.26933 77.7459 -6.58856L86.924 8.89572ZM82.8846 9.49272C81.507 9.15435 80.3464 8.2963 79.6218 7.14036L94.8732 -2.41978C93.1376 -5.18848 90.3883 -7.19917 87.1784 -7.98764L82.8846 9.49272ZM79.6205 7.13831L86.3248 17.84L101.579 8.28397L94.8745 -2.41773L79.6205 7.13831ZM101.579 17.84L108.283 7.13831L93.029 -2.41773L86.3248 8.28397L101.579 17.84ZM108.284 7.13652C107.559 8.29387 106.398 9.15293 105.019 9.49137L100.728 -7.98973C97.5153 -7.2011 94.7636 -5.18802 93.0279 -2.41595L108.284 7.13652ZM105.019 9.49137C103.638 9.83043 102.185 9.60956 100.977 8.89182L110.168 -6.58466C107.331 -8.26933 103.944 -8.77899 100.728 -7.98973L105.019 9.49137ZM100.979 8.89316C102.112 9.56557 103.108 10.4674 103.903 11.5505L118.414 0.901085C116.195 -2.12324 113.391 -4.67154 110.166 -6.586L100.979 8.89316ZM103.903 11.5505C104.698 12.6339 105.274 13.8751 105.591 15.2014L123.097 11.0129C122.224 7.36459 120.634 3.92513 118.414 0.901085L103.903 11.5505ZM105.591 15.2014C105.909 16.5278 105.959 17.907 105.74 19.255L123.505 22.1507C124.109 18.4484 123.97 14.6611 123.097 11.0129L105.591 15.2014ZM105.74 19.255C105.52 20.6028 105.035 21.8863 104.32 23.0294L119.577 32.5796C121.568 29.4001 122.902 25.8531 123.505 22.1507L105.74 19.255ZM104.311 23.0441L99.9407 30.0555L115.217 39.5764L119.587 32.5649L104.311 23.0441ZM99.9498 39.5908L178.86 165.668L194.118 156.118L115.208 30.0411L99.9498 39.5908ZM178.867 165.678C178.49 165.078 178.24 164.413 178.127 163.724L195.891 160.815C195.617 159.146 195.014 157.545 194.112 156.108L178.867 165.678ZM178.127 163.724C178.014 163.035 178.04 162.331 178.202 161.651L195.709 165.834C196.102 164.189 196.164 162.483 195.891 160.815L178.127 163.724ZM178.202 161.651C178.365 160.97 178.663 160.324 179.084 159.75L193.593 170.403C194.599 169.033 195.316 167.479 195.709 165.834L178.202 161.651ZM179.084 159.75C179.505 159.177 180.042 158.687 180.667 158.316L189.842 173.802C191.313 172.931 192.587 171.773 193.593 170.403L179.084 159.75ZM180.634 158.336C178.213 159.784 175.346 160.212 172.634 159.546L168.34 177.026C175.67 178.827 183.398 177.657 189.875 173.783L180.634 158.336ZM172.634 159.546C169.919 158.879 167.534 157.157 166.01 154.704L150.72 164.203C154.701 170.611 161.013 175.227 168.34 177.026L172.634 159.546ZM165.993 154.678L101.58 51.7798L86.3231 61.3306L150.736 164.229L165.993 154.678ZM86.3231 51.7799L21.9136 154.675L37.1709 164.225L101.58 61.3305L86.3231 51.7799ZM21.8978 154.7C20.9077 156.294 19.5438 157.593 17.9434 158.489L26.7323 174.197C31.0073 171.805 34.6007 168.362 37.1867 164.2L21.8978 154.7ZM17.9434 158.489C16.3437 159.384 14.5548 159.849 12.7424 159.849L12.7444 177.849C17.6436 177.849 22.4565 176.589 26.7323 174.197L17.9434 158.489ZM7.83774 169.891C12.2327 170.923 16.8355 170.541 20.9998 168.802L14.0644 152.192C13.3912 152.473 12.6556 152.533 11.9536 152.368L7.83774 169.891ZM20.9998 168.802C25.1626 167.064 28.6658 164.064 31.0388 160.24L15.7443 150.749C15.3321 151.413 14.7392 151.91 14.0644 152.192L20.9998 168.802ZM31.0201 160.27L98.5068 52.463L83.2496 42.9121L15.763 150.719L31.0201 160.27ZM98.5074 52.462C98.0364 53.2146 97.3768 53.8478 96.58 54.2919L87.8174 38.5688C85.9453 39.6121 84.3773 41.1102 83.249 42.9131L98.5074 52.462ZM96.58 54.2919C95.7824 54.7364 94.8785 54.9736 93.9536 54.9736V36.9736C91.8014 36.9736 89.6902 37.525 87.8174 38.5688L96.58 54.2919ZM93.9536 54.9736C93.0286 54.9736 92.1247 54.7364 91.3271 54.2919L100.09 38.5688C98.2169 37.525 96.1057 36.9736 93.9536 36.9736V54.9736ZM91.3271 54.2919C90.5303 53.8478 89.8707 53.2146 89.3997 52.462L104.658 42.9131C103.53 41.1102 101.962 39.6121 100.09 38.5688L91.3271 54.2919ZM89.4003 52.463L156.887 160.27L172.144 150.719L104.657 42.9121L89.4003 52.463ZM156.867 160.238C159.24 164.063 162.744 167.064 166.907 168.803L173.842 152.193C173.168 151.911 172.576 151.414 172.164 150.75L156.867 160.238ZM166.907 168.803C171.072 170.542 175.676 170.924 180.071 169.89L175.952 152.368C175.25 152.533 174.515 152.473 173.842 152.193L166.907 168.803ZM185.64 156.354L107.804 32.0148L92.5467 41.5657L170.383 165.905L185.64 156.354ZM107.802 32.0118C108.332 32.8584 108.608 33.8294 108.608 34.8123H90.608C90.608 37.1962 91.2771 39.5393 92.5486 41.5687L107.802 32.0118ZM108.608 34.8123C108.608 35.7952 108.332 36.7662 107.802 37.6128L92.5486 28.0559C91.2771 30.0852 90.608 32.4283 90.608 34.8123H108.608ZM107.804 37.6097L113.427 28.6277L98.1694 19.0768L92.5467 28.0589L107.804 37.6097ZM113.431 28.6212C115.808 24.8168 116.886 20.3434 116.518 15.8787L98.5789 17.3597C98.6297 17.9747 98.4792 18.5809 98.1653 19.0833L113.431 28.6212ZM116.518 15.8787C116.149 11.4135 114.351 7.17592 111.374 3.81457L97.8985 15.7482C98.2815 16.1807 98.5282 16.7451 98.5789 17.3597L116.518 15.8787ZM97.0071 5.00683L89.3998 17.1625L104.658 26.7116L112.265 14.5559L97.0071 5.00683ZM89.3997 17.1626C89.8708 16.4099 90.5303 15.7767 91.3271 15.3326L100.09 31.0558C101.962 30.0124 103.53 28.5143 104.658 26.7115L89.3997 17.1626ZM91.3271 15.3326C92.1247 14.8881 93.0286 14.6509 93.9536 14.6509V32.6509C96.1057 32.6509 98.2169 32.0995 100.09 31.0558L91.3271 15.3326ZM93.9536 14.6509C94.8786 14.6509 95.7824 14.8881 96.58 15.3326L87.8174 31.0558C89.6902 32.0995 91.8014 32.6509 93.9536 32.6509V14.6509ZM96.58 15.3326C97.3768 15.7767 98.0364 16.4099 98.5074 17.1626L83.249 26.7115C84.3773 28.5143 85.9453 30.0124 87.8174 31.0558L96.58 15.3326ZM98.5063 17.1608L90.8953 5.00519L75.6391 14.5575L83.2501 26.7132L98.5063 17.1608ZM76.5294 3.81457C73.5527 7.17593 71.7542 11.4135 71.3856 15.8787L89.3246 17.3597C89.3753 16.7451 89.622 16.1806 90.005 15.7482L76.5294 3.81457ZM71.3856 15.8787C71.017 20.3434 72.0958 24.8168 74.4729 28.6212L89.7381 19.0833C89.4243 18.5809 89.2738 17.9747 89.3246 17.3597L71.3856 15.8787ZM74.4783 28.6299L80.1046 37.6119L95.359 28.0567L89.7327 19.0746L74.4783 28.6299ZM80.1051 37.6128C79.5747 36.7661 79.2991 35.7951 79.2991 34.8123H97.2991C97.2991 32.4284 96.63 30.0853 95.3585 28.0559L80.1051 37.6128ZM79.2991 34.8123C79.2991 33.8294 79.5747 32.8584 80.1051 32.0118L95.3585 41.5687C96.63 39.5393 97.2991 37.1962 97.2991 34.8123H79.2991ZM80.1033 32.0148L2.26713 156.354L17.5242 165.905L95.3604 41.5657L80.1033 32.0148Z" fill="white" mask="url(#path-1-inside-1_538_372)"/>
<mask id="path-3-inside-2_538_372" fill="white">
<path d="M161.505 189.341H26.4004C25.4346 189.341 24.5083 188.952 23.8254 188.26C23.1425 187.568 22.7588 186.63 22.7588 185.651V157.576C22.7588 156.597 23.1425 155.658 23.8254 154.966C24.5083 154.274 25.4346 153.885 26.4004 153.885C27.3662 153.885 28.2925 154.274 28.9754 154.966C29.6584 155.658 30.042 156.597 30.042 157.576V181.961H157.863V157.576C157.863 156.597 158.247 155.658 158.93 154.966C159.613 154.274 160.539 153.885 161.505 153.885C162.471 153.885 163.397 154.274 164.08 154.966C164.763 155.658 165.146 156.597 165.146 157.576V185.651C165.146 186.63 164.763 187.568 164.08 188.26C163.397 188.952 162.471 189.341 161.505 189.341ZM132.314 115.337H55.1584C54.1925 115.337 53.2663 114.948 52.5833 114.256C51.9004 113.564 51.5167 112.625 51.5167 111.647C51.5167 110.668 51.9004 109.729 52.5833 109.037C53.2663 108.345 54.1925 107.957 55.1584 107.957H132.314C133.279 107.957 134.206 108.345 134.889 109.037C135.571 109.729 135.955 110.668 135.955 111.647C135.955 112.625 135.571 113.564 134.889 114.256C134.206 114.948 133.279 115.337 132.314 115.337Z"/>
</mask>
<path d="M161.505 189.341V198.341V189.341ZM26.4004 189.341V180.341V189.341ZM22.7588 157.576H13.7588H22.7588ZM30.042 157.576H39.042H30.042ZM30.042 181.961H21.042V190.961H30.042V181.961ZM157.863 181.961V190.961H166.863V181.961H157.863ZM157.863 157.576H148.863H157.863ZM165.146 185.651H156.146H165.146ZM161.505 180.341H26.4004V198.341H161.505V180.341ZM26.4004 180.341C27.8603 180.341 29.236 180.93 30.2314 181.939L17.4194 194.582C19.7807 196.975 23.0089 198.341 26.4004 198.341V180.341ZM30.2314 181.939C31.2229 182.943 31.7588 184.281 31.7588 185.651H13.7588C13.7588 188.978 15.0621 192.193 17.4194 194.582L30.2314 181.939ZM31.7588 185.651V157.576H13.7588V185.651H31.7588ZM31.7588 157.576C31.7588 158.946 31.2229 160.283 30.2314 161.288L17.4194 148.645C15.0621 151.033 13.7588 154.248 13.7588 157.576H31.7588ZM30.2314 161.288C29.236 162.296 27.8603 162.885 26.4004 162.885V144.885C23.0089 144.885 19.7807 146.252 17.4194 148.645L30.2314 161.288ZM26.4004 162.885C24.9405 162.885 23.5649 162.296 22.5694 161.288L35.3815 148.645C33.0201 146.252 29.792 144.885 26.4004 144.885V162.885ZM22.5694 161.288C21.578 160.283 21.042 158.946 21.042 157.576H39.042C39.042 154.248 37.7388 151.033 35.3815 148.645L22.5694 161.288ZM21.042 157.576V181.961H39.042V157.576H21.042ZM30.042 190.961H157.863V172.961H30.042V190.961ZM166.863 181.961V157.576H148.863V181.961H166.863ZM166.863 157.576C166.863 158.946 166.327 160.283 165.336 161.288L152.524 148.645C150.166 151.033 148.863 154.248 148.863 157.576H166.863ZM165.336 161.288C164.34 162.296 162.965 162.885 161.505 162.885V144.885C158.113 144.885 154.885 146.252 152.524 148.645L165.336 161.288ZM161.505 162.885C160.045 162.885 158.669 162.296 157.674 161.288L170.486 148.645C168.125 146.252 164.896 144.885 161.505 144.885V162.885ZM157.674 161.288C156.682 160.283 156.146 158.945 156.146 157.576H174.146C174.146 154.248 172.843 151.033 170.486 148.645L157.674 161.288ZM156.146 157.576V185.651H174.146V157.576H156.146ZM156.146 185.651C156.146 184.281 156.682 182.943 157.674 181.939L170.486 194.582C172.843 192.193 174.146 188.978 174.146 185.651H156.146ZM157.674 181.939C158.669 180.93 160.045 180.341 161.505 180.341V198.341C164.896 198.341 168.125 196.975 170.486 194.582L157.674 181.939ZM132.314 106.337H55.1584V124.337H132.314V106.337ZM55.1584 106.337C56.6183 106.337 57.994 106.926 58.9893 107.935L46.1773 120.578C48.5386 122.971 51.7667 124.337 55.1584 124.337V106.337ZM58.9893 107.935C59.9808 108.939 60.5167 110.277 60.5167 111.647H42.5167C42.5167 114.974 43.82 118.189 46.1773 120.578L58.9893 107.935ZM60.5167 111.647C60.5167 113.017 59.9808 114.354 58.9893 115.359L46.1773 102.716C43.82 105.105 42.5167 108.319 42.5167 111.647H60.5167ZM58.9893 115.359C57.9939 116.368 56.6183 116.957 55.1584 116.957V98.9565C51.7668 98.9565 48.5386 100.323 46.1773 102.716L58.9893 115.359ZM55.1584 116.957H132.314V98.9565H55.1584V116.957ZM132.314 116.957C130.854 116.957 129.478 116.368 128.483 115.359L141.295 102.716C138.933 100.323 135.705 98.9565 132.314 98.9565V116.957ZM128.483 115.359C127.491 114.354 126.955 113.017 126.955 111.647H144.955C144.955 108.319 143.652 105.105 141.295 102.716L128.483 115.359ZM126.955 111.647C126.955 110.277 127.491 108.939 128.483 107.935L141.295 120.578C143.652 118.189 144.955 114.974 144.955 111.647H126.955ZM128.483 107.935C129.478 106.926 130.854 106.337 132.314 106.337V124.337C135.705 124.337 138.933 122.971 141.295 120.578L128.483 107.935Z" fill="white" mask="url(#path-3-inside-2_538_372)"/>
<mask id="path-5-inside-3_538_372" fill="white">
<path d="M114.036 174.539C108.982 174.538 104.043 173.018 99.8412 170.172C95.6399 167.325 92.3658 163.28 90.4329 158.548C88.5001 153.817 87.9953 148.61 88.9824 143.587C89.9695 138.565 92.4042 133.952 95.9785 130.331C99.5528 126.71 104.106 124.245 109.063 123.247C114.02 122.249 119.158 122.763 123.827 124.723C128.495 126.684 132.486 130.004 135.293 134.262C138.1 138.521 139.598 143.527 139.597 148.649C139.59 155.515 136.895 162.098 132.102 166.953C127.31 171.807 120.812 174.536 114.036 174.539ZM114.036 130.135C110.423 130.136 106.891 131.223 103.888 133.259C100.884 135.294 98.5438 138.186 97.1621 141.569C95.7804 144.952 95.4197 148.674 96.1254 152.265C96.8312 155.856 98.5718 159.154 101.127 161.743C103.683 164.331 106.938 166.094 110.482 166.807C114.026 167.521 117.699 167.154 121.037 165.753C124.375 164.351 127.228 161.978 129.235 158.934C131.242 155.889 132.314 152.31 132.314 148.649C132.309 143.739 130.381 139.031 126.955 135.56C123.528 132.089 118.882 130.138 114.036 130.135Z"/>
</mask>
<path d="M114.036 174.539L114.034 183.539L114.041 183.539L114.036 174.539ZM139.597 148.649L148.597 148.658V148.65L139.597 148.649ZM114.036 130.135L114.042 121.135L114.033 121.135L114.036 130.135ZM132.314 148.649H141.314L141.314 148.64L132.314 148.649ZM114.039 165.539C110.792 165.539 107.608 164.563 104.889 162.721L94.7932 177.623C100.477 181.473 107.173 183.537 114.034 183.539L114.039 165.539ZM104.889 162.721C102.169 160.878 100.031 158.246 98.7647 155.145L82.1012 161.952C84.7002 168.315 89.1107 173.773 94.7932 177.623L104.889 162.721ZM98.7647 155.145C97.4976 152.043 97.1649 148.623 97.8135 145.323L80.1513 141.852C78.8257 148.597 79.5026 155.59 82.1012 161.952L98.7647 155.145ZM97.8135 145.323C98.462 142.023 100.059 139.009 102.383 136.654L89.5738 124.008C84.7497 128.894 81.477 135.106 80.1513 141.852L97.8135 145.323ZM102.383 136.654C104.707 134.301 107.652 132.712 110.84 132.07L107.287 114.424C100.561 115.779 94.3992 119.12 89.5738 124.008L102.383 136.654ZM110.84 132.07C114.027 131.428 117.332 131.758 120.342 133.021L127.311 116.426C120.984 113.768 114.013 113.07 107.287 114.424L110.84 132.07ZM120.342 133.021C123.353 134.286 125.945 136.435 127.778 139.215L142.807 129.309C139.026 123.572 133.638 119.082 127.311 116.426L120.342 133.021ZM127.778 139.215C129.612 141.997 130.597 145.28 130.597 148.647L148.597 148.65C148.598 141.775 146.588 135.045 142.807 129.309L127.778 139.215ZM130.597 148.64C130.592 153.16 128.817 157.47 125.698 160.63L138.507 173.276C144.972 166.727 148.588 157.87 148.597 148.658L130.597 148.64ZM125.698 160.63C122.582 163.785 118.384 165.537 114.031 165.539L114.041 183.539C123.241 183.534 132.037 179.829 138.507 173.276L125.698 160.63ZM114.033 121.135C108.613 121.137 103.325 122.768 98.8394 125.808L108.937 140.709C110.458 139.678 112.233 139.136 114.04 139.135L114.033 121.135ZM98.8394 125.808C94.3548 128.847 90.878 133.152 88.8302 138.166L105.494 144.972C106.21 143.219 107.414 141.741 108.937 140.709L98.8394 125.808ZM88.8302 138.166C86.7829 143.179 86.2501 148.688 87.2944 154.001L104.956 150.529C104.589 148.661 104.778 146.725 105.494 144.972L88.8302 138.166ZM87.2944 154.001C88.3388 159.315 90.9174 164.211 94.7225 168.066L107.532 155.42C106.226 154.097 105.324 152.397 104.956 150.529L87.2944 154.001ZM94.7225 168.066C98.5288 171.921 103.392 174.56 108.705 175.63L112.259 157.985C110.484 157.627 108.836 156.741 107.532 155.42L94.7225 168.066ZM108.705 175.63C114.018 176.7 119.524 176.149 124.521 174.051L117.553 157.454C115.874 158.159 114.033 158.342 112.259 157.985L108.705 175.63ZM124.521 174.051C129.517 171.953 133.767 168.41 136.749 163.888L121.721 153.98C120.688 155.546 119.233 156.749 117.553 157.454L124.521 174.051ZM136.749 163.888C139.73 159.367 141.314 154.064 141.314 148.649L123.314 148.649C123.314 150.557 122.755 152.412 121.721 153.98L136.749 163.888ZM141.314 148.64C141.306 141.384 138.459 134.403 133.359 129.237L120.55 141.883C122.304 143.66 123.311 146.094 123.314 148.658L141.314 148.64ZM133.359 129.237C128.255 124.067 121.31 121.139 114.042 121.135L114.031 139.135C116.453 139.136 118.8 140.111 120.55 141.883L133.359 129.237Z" fill="white" mask="url(#path-5-inside-3_538_372)"/>
<path d="M111.201 151.516L111.446 151.274L111.201 151.516Z" stroke="white" stroke-width="9"/>
<mask id="path-8-inside-4_538_372" fill="white">
<path d="M106.735 152.339H92.128C91.1621 152.339 90.2359 151.95 89.5529 151.258C88.87 150.566 88.4863 149.627 88.4863 148.649C88.4863 147.67 88.87 146.731 89.5529 146.039C90.2359 145.347 91.1621 144.958 92.128 144.958H106.735C107.7 144.958 108.627 145.347 109.31 146.039C109.992 146.731 110.376 147.67 110.376 148.649C110.376 149.627 109.992 150.566 109.31 151.258C108.627 151.95 107.7 152.339 106.735 152.339ZM114.036 144.936C113.07 144.936 112.144 144.547 111.461 143.855C110.778 143.163 110.394 142.225 110.394 141.246V126.444C110.394 125.466 110.778 124.527 111.461 123.835C112.144 123.143 113.07 122.754 114.036 122.754C115.002 122.754 115.928 123.143 116.611 123.835C117.294 124.527 117.678 125.466 117.678 126.444V141.246C117.678 142.225 117.294 143.163 116.611 143.855C115.928 144.547 115.002 144.936 114.036 144.936ZM135.955 152.339H121.352C120.386 152.339 119.46 151.95 118.777 151.258C118.094 150.566 117.71 149.627 117.71 148.649C117.71 147.67 118.094 146.731 118.777 146.039C119.46 145.347 120.386 144.958 121.352 144.958H135.955C136.921 144.958 137.847 145.347 138.53 146.039C139.213 146.731 139.597 147.67 139.597 148.649C139.597 149.627 139.213 150.566 138.53 151.258C137.847 151.95 136.921 152.339 135.955 152.339ZM114.036 174.539C113.07 174.539 112.144 174.151 111.461 173.458C110.778 172.766 110.394 171.828 110.394 170.849V156.047C110.394 155.069 110.778 154.13 111.461 153.438C112.144 152.746 113.07 152.357 114.036 152.357C115.002 152.357 115.928 152.746 116.611 153.438C117.294 154.13 117.678 155.069 117.678 156.047V170.849C117.678 171.828 117.294 172.766 116.611 173.458C115.928 174.151 115.002 174.539 114.036 174.539Z"/>
</mask>
<path d="M114.036 144.936V153.936V144.936ZM110.394 141.246H101.394H110.394ZM110.394 126.444H101.394H110.394ZM117.678 141.246H108.678H117.678ZM117.71 148.649H108.71H117.71ZM114.036 174.539V165.539V174.539ZM110.394 170.849H101.394H110.394ZM110.394 156.047H101.394H110.394ZM117.678 170.849H108.678H117.678ZM106.735 143.339H92.128V161.339H106.735V143.339ZM92.128 143.339C93.5879 143.339 94.9635 143.928 95.959 144.936L83.1469 157.58C85.5082 159.972 88.7364 161.339 92.128 161.339V143.339ZM95.959 144.936C96.9504 145.941 97.4863 147.279 97.4863 148.649H79.4863C79.4863 151.976 80.7896 155.191 83.1469 157.58L95.959 144.936ZM97.4863 148.649C97.4863 150.019 96.9504 151.356 95.959 152.361L83.1469 139.718C80.7896 142.106 79.4863 145.321 79.4863 148.649H97.4863ZM95.959 152.361C94.9635 153.37 93.5879 153.958 92.128 153.958V135.958C88.7364 135.958 85.5082 137.325 83.1469 139.718L95.959 152.361ZM92.128 153.958H106.735V135.958H92.128V153.958ZM106.735 153.958C105.275 153.958 103.899 153.37 102.904 152.361L115.716 139.718C113.354 137.325 110.126 135.958 106.735 135.958V153.958ZM102.904 152.361C101.912 151.356 101.376 150.019 101.376 148.649H119.376C119.376 145.321 118.073 142.106 115.716 139.718L102.904 152.361ZM101.376 148.649C101.376 147.279 101.912 145.941 102.904 144.936L115.716 157.58C118.073 155.191 119.376 151.976 119.376 148.649H101.376ZM102.904 144.936C103.899 143.928 105.275 143.339 106.735 143.339V161.339C110.126 161.339 113.354 159.972 115.716 157.58L102.904 144.936ZM114.036 135.936C115.496 135.936 116.872 136.525 117.867 137.534L105.055 150.177C107.416 152.57 110.644 153.936 114.036 153.936V135.936ZM117.867 137.534C118.858 138.538 119.394 139.876 119.394 141.246H101.394C101.394 144.573 102.698 147.788 105.055 150.177L117.867 137.534ZM119.394 141.246V126.444H101.394V141.246H119.394ZM119.394 126.444C119.394 127.814 118.858 129.152 117.867 130.157L105.055 117.513C102.698 119.902 101.394 123.117 101.394 126.444L119.394 126.444ZM117.867 130.157C116.872 131.165 115.496 131.754 114.036 131.754V113.754C110.644 113.754 107.416 115.121 105.055 117.513L117.867 130.157ZM114.036 131.754C112.576 131.754 111.2 131.165 110.205 130.157L123.017 117.513C120.656 115.121 117.428 113.754 114.036 113.754V131.754ZM110.205 130.157C109.214 129.152 108.678 127.814 108.678 126.444H126.678C126.678 123.117 125.374 119.902 123.017 117.513L110.205 130.157ZM108.678 126.444V141.246H126.678V126.444H108.678ZM108.678 141.246C108.678 139.876 109.214 138.538 110.205 137.534L123.017 150.177C125.374 147.788 126.678 144.573 126.678 141.246H108.678ZM110.205 137.534C111.2 136.525 112.576 135.936 114.036 135.936V153.936C117.428 153.936 120.656 152.57 123.017 150.177L110.205 137.534ZM135.955 143.339H121.352V161.339H135.955V143.339ZM121.352 143.339C122.812 143.339 124.188 143.928 125.183 144.936L112.371 157.58C114.732 159.972 117.96 161.339 121.352 161.339V143.339ZM125.183 144.936C126.174 145.941 126.71 147.279 126.71 148.649H108.71C108.71 151.976 110.014 155.191 112.371 157.58L125.183 144.936ZM126.71 148.649C126.71 150.019 126.174 151.356 125.183 152.361L112.371 139.718C110.014 142.106 108.71 145.321 108.71 148.649H126.71ZM125.183 152.361C124.188 153.37 122.812 153.958 121.352 153.958V135.958C117.96 135.958 114.732 137.325 112.371 139.718L125.183 152.361ZM121.352 153.958H135.955V135.958H121.352V153.958ZM135.955 153.958C134.495 153.958 133.119 153.37 132.124 152.361L144.936 139.718C142.575 137.325 139.346 135.958 135.955 135.958V153.958ZM132.124 152.361C131.133 151.356 130.597 150.019 130.597 148.649H148.597C148.597 145.321 147.293 142.106 144.936 139.718L132.124 152.361ZM130.597 148.649C130.597 147.279 131.133 145.941 132.124 144.936L144.936 157.58C147.293 155.191 148.597 151.976 148.597 148.649H130.597ZM132.124 144.936C133.119 143.928 134.495 143.339 135.955 143.339V161.339C139.346 161.339 142.575 159.972 144.936 157.58L132.124 144.936ZM114.036 165.539C115.496 165.539 116.872 166.128 117.867 167.137L105.055 179.78C107.416 182.173 110.644 183.539 114.036 183.539V165.539ZM117.867 167.137C118.858 168.142 119.394 169.479 119.394 170.849H101.394C101.394 174.176 102.698 177.391 105.055 179.78L117.867 167.137ZM119.394 170.849V156.047H101.394V170.849H119.394ZM119.394 156.047C119.394 157.418 118.858 158.755 117.867 159.76L105.055 147.116C102.698 149.505 101.394 152.72 101.394 156.047H119.394ZM117.867 159.76C116.872 160.768 115.496 161.357 114.036 161.357V143.357C110.644 143.357 107.416 144.724 105.055 147.116L117.867 159.76ZM114.036 161.357C112.576 161.357 111.2 160.768 110.205 159.76L123.017 147.116C120.656 144.724 117.428 143.357 114.036 143.357V161.357ZM110.205 159.76C109.214 158.755 108.678 157.418 108.678 156.047H126.678C126.678 152.72 125.374 149.505 123.017 147.116L110.205 159.76ZM108.678 156.047V170.849H126.678V156.047H108.678ZM108.678 170.849C108.678 169.479 109.214 168.142 110.205 167.137L123.017 179.78C125.374 177.391 126.678 174.176 126.678 170.849H108.678ZM110.205 167.137C111.2 166.128 112.576 165.539 114.036 165.539V183.539C117.428 183.539 120.656 182.173 123.017 179.78L110.205 167.137Z" fill="white" mask="url(#path-8-inside-4_538_372)"/>
</svg>
