<svg width="37" height="25" viewBox="0 0 37 25" fill="none" xmlns="http://www.w3.org/2000/svg">
<path id="Vector" d="M33.3 12.6667V1.70374C33.3 1.3403 33.1051 0.99174 32.7581 0.734746C32.4112 0.477752 31.9407 0.333374 31.45 0.333374C30.9594 0.333374 30.4888 0.477752 30.1419 0.734746C29.7949 0.99174 29.6 1.3403 29.6 1.70374V4.44449H7.4V1.70374C7.4 1.3403 7.20509 0.99174 6.85815 0.734746C6.51121 0.477752 6.04065 0.333374 5.55 0.333374C5.05935 0.333374 4.5888 0.477752 4.24185 0.734746C3.89491 0.99174 3.7 1.3403 3.7 1.70374V12.6667C2.7187 12.6667 1.77759 12.9555 1.0837 13.4695C0.38982 13.9834 0 14.6806 0 15.4074V23.6297C0 23.9931 0.19491 24.3417 0.541852 24.5987C0.888795 24.8557 1.35935 25 1.85 25C2.34065 25 2.81121 24.8557 3.15815 24.5987C3.50509 24.3417 3.7 23.9931 3.7 23.6297V20.8889H33.3V23.6297C33.3 23.9931 33.4949 24.3417 33.8419 24.5987C34.1888 24.8557 34.6594 25 35.15 25C35.6407 25 36.1112 24.8557 36.4581 24.5987C36.8051 24.3417 37 23.9931 37 23.6297V15.4074C37 14.6806 36.6102 13.9834 35.9163 13.4695C35.2224 12.9555 34.2813 12.6667 33.3 12.6667ZM16.65 12.6667H7.4V11.2963C7.4 10.9329 7.59491 10.5843 7.94185 10.3273C8.2888 10.0703 8.75935 9.92597 9.25 9.92597H14.8C15.2907 9.92597 15.7612 10.0703 16.1081 10.3273C16.4551 10.5843 16.65 10.9329 16.65 11.2963V12.6667ZM29.6 12.6667H20.35V11.2963C20.35 10.9329 20.5449 10.5843 20.8919 10.3273C21.2388 10.0703 21.7094 9.92597 22.2 9.92597H27.75C28.2407 9.92597 28.7112 10.0703 29.0581 10.3273C29.4051 10.5843 29.6 10.9329 29.6 11.2963V12.6667Z" fill="#488873"/>
</svg>
