<svg width="212" height="184" viewBox="0 0 212 184" fill="none" xmlns="http://www.w3.org/2000/svg">
<path fill-rule="evenodd" clip-rule="evenodd" d="M108.081 72.6092L92.377 62.7944C90.5397 61.6441 88.1174 62.2055 86.9671 64.0428C85.8168 65.8802 86.3782 68.3024 88.2155 69.4527L103.919 79.2676C105.757 80.4178 108.179 79.8565 109.329 78.0191C110.479 76.1818 109.918 73.7595 108.081 72.6092Z" fill="white"/>
<path fill-rule="evenodd" clip-rule="evenodd" d="M90.8575 52.3278L79.0797 71.9575C77.9648 73.8144 78.5654 76.2289 80.4263 77.3399C82.2832 78.4549 84.6977 77.8543 85.8087 75.9934L97.5865 56.3637C98.7015 54.5068 98.1008 52.0923 96.24 50.9813C94.383 49.8663 91.9685 50.4669 90.8575 52.3278Z" fill="white"/>
<path fill-rule="evenodd" clip-rule="evenodd" d="M43.186 128.932C28.0163 128.932 15.7046 141.243 15.7046 156.413C15.7046 171.583 28.0163 183.895 43.186 183.895C58.3557 183.895 70.6674 171.583 70.6674 156.413C70.6674 141.243 58.3557 128.932 43.186 128.932ZM43.186 136.784C54.0215 136.784 62.8156 145.578 62.8156 156.413C62.8156 167.249 54.0215 176.043 43.186 176.043C32.3505 176.043 23.5564 167.249 23.5564 156.413C23.5564 145.578 32.3505 136.784 43.186 136.784Z" fill="white"/>
<path fill-rule="evenodd" clip-rule="evenodd" d="M168.815 128.932C153.646 128.932 141.334 141.243 141.334 156.413C141.334 171.583 153.646 183.895 168.815 183.895C183.985 183.895 196.297 171.583 196.297 156.413C196.297 141.243 183.985 128.932 168.815 128.932ZM168.815 136.784C179.651 136.784 188.445 145.578 188.445 156.413C188.445 167.249 179.651 176.043 168.815 176.043C157.98 176.043 149.186 167.249 149.186 156.413C149.186 145.578 157.98 136.784 168.815 136.784Z" fill="white"/>
<path fill-rule="evenodd" clip-rule="evenodd" d="M43.1834 144.633C36.6839 144.633 31.4058 149.911 31.4058 156.411C31.4058 162.91 36.6839 168.189 43.1834 168.189C49.6829 168.189 54.9611 162.91 54.9611 156.411C54.9611 149.911 49.6829 144.633 43.1834 144.633ZM43.1834 152.485C45.3505 152.485 47.1093 154.244 47.1093 156.411C47.1093 158.578 45.3505 160.337 43.1834 160.337C41.0163 160.337 39.2575 158.578 39.2575 156.411C39.2575 154.244 41.0163 152.485 43.1834 152.485Z" fill="white"/>
<path fill-rule="evenodd" clip-rule="evenodd" d="M168.813 144.633C162.314 144.633 157.036 149.911 157.036 156.411C157.036 162.91 162.314 168.189 168.813 168.189C175.313 168.189 180.591 162.91 180.591 156.411C180.591 149.911 175.313 144.633 168.813 144.633ZM168.813 152.485C170.98 152.485 172.739 154.244 172.739 156.411C172.739 158.578 170.98 160.337 168.813 160.337C166.646 160.337 164.887 158.578 164.887 156.411C164.887 154.244 166.646 152.485 168.813 152.485Z" fill="white"/>
<path fill-rule="evenodd" clip-rule="evenodd" d="M3.92593 81.8273H26.5471C29.5504 81.8273 32.0709 84.0848 32.4006 87.0646L34.5796 106.682C35.2431 112.65 40.284 117.161 46.2867 117.161H92.0158C97.4218 117.161 102.133 113.482 103.444 108.241C104.555 103.793 105.882 98.4851 105.882 98.4851C106.408 96.3808 105.128 94.2489 103.028 93.7229C100.924 93.1968 98.792 94.4766 98.2659 96.577L95.8279 106.337C95.3882 108.084 93.8178 109.309 92.0198 109.309H46.2867C44.2884 109.309 42.6041 107.805 42.3843 105.815C41.76 100.189 40.8767 92.2467 40.2054 86.1969C39.432 79.2401 33.5509 73.9755 26.5471 73.9755H3.92593C1.75881 73.9755 0 75.7343 0 77.9014C0 80.0685 1.75881 81.8273 3.92593 81.8273Z" fill="white"/>
<path fill-rule="evenodd" clip-rule="evenodd" d="M192.37 160.346H200.222C203.347 160.346 206.343 159.105 208.549 156.895C210.759 154.689 212 151.693 212 148.568V95.1087C212 74.9451 195.652 58.5976 175.489 58.5976C158.509 58.5976 138.463 58.5976 124.664 58.5976C113.208 58.5976 103.601 67.2543 102.408 78.6473C102.043 82.1453 100.162 89.5182 99.0707 93.6051H62.7952C60.7694 93.6051 59.0734 92.0583 58.8889 90.0404C58.3785 84.5166 57.6993 77.1633 57.3303 73.2021C56.3213 62.5157 47.3467 54.3458 36.6132 54.3458C28.3413 54.3458 18.4872 54.3458 11.7778 54.3458C8.65274 54.3458 5.65727 55.5864 3.4509 57.7967C1.2406 60.0031 0 62.9986 0 66.1236C0 83.8688 0 130.823 0 148.568C0 151.693 1.2406 154.689 3.4509 156.895C5.65727 159.105 8.65274 160.346 11.7778 160.346H19.6296C21.7967 160.346 23.5556 158.587 23.5556 156.42C23.5556 145.584 32.3496 136.79 43.1852 136.79C54.0207 136.79 62.8148 145.584 62.8148 156.42C62.8148 158.587 64.5736 160.346 66.7407 160.346H145.259C147.426 160.346 149.185 158.587 149.185 156.42C149.185 145.584 157.979 136.79 168.815 136.79C179.65 136.79 188.444 145.584 188.444 156.42L192.37 160.346Z" fill="white"/>
<path d="M94.4705 58.5162C94.2394 58.8397 100.372 59.6832 92.8624 67.1231C92.01 67.9661 91.0195 68.5789 89.8908 68.9614C89.0525 69.2471 88.0124 69.3829 86.7703 69.3687C80.808 69.2955 75.1327 69.2755 69.7442 69.3085C68.7973 69.3156 67.8906 68.9402 67.024 68.1822C46.2323 49.9354 64.4315 66.687 69.7442 69.3085C71.1433 69.9992 68.9508 81.8115 68.9544 83.3948C68.9614 87.2083 68.9603 90.8754 68.9508 94.3961C68.9437 96.7869 67.0701 98.8306 64.658 98.8306C55.4419 98.8211 46.0723 98.8211 36.5492 98.8306C35.4346 98.8306 34.6247 98.6984 34.1194 98.4339C30.9565 96.7692 31.4346 93.4149 31.4311 90.3051C31.4098 78.7395 31.4488 67.6049 31.548 56.9011C31.5834 53.2813 32.6873 49.9412 34.8597 46.881C38.3874 41.9034 43.1667 39.3 49.1974 39.071C54.3474 38.8774 58.7134 40.8833 62.2955 45.0887C65.5565 48.914 68.7784 52.6827 71.9615 56.3946C72.3605 56.8598 72.7997 57.2919 73.2791 57.691C73.3735 57.7689 73.481 57.8079 73.6014 57.8079L79.3677 57.7937C92.8624 58.5163 94.4705 58.5162 94.4705 58.5162Z" fill="white"/>
<path d="M54.5722 30.1369C62.6497 29.8407 68.9606 23.135 68.6682 15.1592C68.3757 7.18343 61.5906 0.957898 53.5132 1.25408C45.4357 1.55027 39.1248 8.25601 39.4172 16.2318C39.7097 24.2075 46.4948 30.4331 54.5722 30.1369Z" fill="white"/>
</svg>
