<svg width="27" height="22" viewBox="0 0 27 22" fill="none" xmlns="http://www.w3.org/2000/svg">
<path d="M26.8873 10.308C24.1613 4.15238 19.0331 0.333008 13.5 0.333008C7.96693 0.333008 2.83872 4.15238 0.112665 10.308C0.0383556 10.4736 0 10.6523 0 10.833C0 11.0137 0.0383556 11.1924 0.112665 11.358C2.83872 17.5136 7.96693 21.333 13.5 21.333C19.0331 21.333 24.1613 17.5136 26.8873 11.358C26.9616 11.1924 27 11.0137 27 10.833C27 10.6523 26.9616 10.4736 26.8873 10.308ZM13.5 18.708C9.22199 18.708 5.1734 15.7024 2.83872 10.833C5.1734 5.96363 9.22199 2.95801 13.5 2.95801C17.778 2.95801 21.8266 5.96363 24.1613 10.833C21.8266 15.7024 17.778 18.708 13.5 18.708ZM13.5 5.58301C12.4324 5.58301 11.3887 5.89092 10.501 6.46779C9.61325 7.04467 8.92136 7.86461 8.51279 8.82392C8.10422 9.78323 7.99732 10.8388 8.2056 11.8572C8.41389 12.8756 8.92801 13.8111 9.68295 14.5453C10.4379 15.2795 11.3997 15.7796 12.4469 15.9821C13.494 16.1847 14.5794 16.0807 15.5658 15.6834C16.5521 15.286 17.3952 14.6131 17.9884 13.7498C18.5815 12.8864 18.8981 11.8714 18.8981 10.833C18.8981 9.44062 18.3294 8.10526 17.317 7.1207C16.3047 6.13613 14.9317 5.58301 13.5 5.58301ZM13.5 13.458C12.9662 13.458 12.4443 13.3041 12.0005 13.0156C11.5566 12.7272 11.2107 12.3172 11.0064 11.8376C10.8021 11.3579 10.7487 10.8301 10.8528 10.3209C10.9569 9.8117 11.214 9.34397 11.5915 8.97685C11.9689 8.60974 12.4499 8.35973 12.9734 8.25845C13.497 8.15716 14.0397 8.20914 14.5329 8.40782C15.0261 8.6065 15.4476 8.94296 15.7442 9.37464C16.0408 9.80632 16.1991 10.3138 16.1991 10.833C16.1991 11.5292 15.9147 12.1969 15.4085 12.6892C14.9024 13.1814 14.2158 13.458 13.5 13.458Z" fill="#488873"/>
</svg>
