<svg width="38" height="37" viewBox="0 0 38 37" fill="none" xmlns="http://www.w3.org/2000/svg">
<path d="M37.4327 33.226C33.0681 28.8588 30.4242 23.0655 29.9856 16.908L29.562 10.9695C29.5128 9.90328 29.1276 8.87995 28.4615 8.04577C27.7954 7.21159 26.8825 6.60928 25.8534 6.32494C25.4442 6.22222 25.0239 6.17044 24.6021 6.17078H21.8969C22.1731 5.52038 22.3144 4.82075 22.3123 4.11419C22.3123 1.80683 20.9571 0 19.2277 0C17.4983 0 16.1432 1.80683 16.1432 4.11419C16.1414 4.82082 16.2831 5.52045 16.5596 6.17078H13.8524C13.4305 6.17051 13.0103 6.22229 12.6011 6.32494C11.5718 6.60933 10.6588 7.2118 9.99269 8.04618C9.32658 8.88057 8.94148 9.90413 8.89245 10.9705L8.46884 16.908C8.02998 23.0656 5.3857 28.8589 1.02069 33.226C1.00218 33.2445 0.996012 33.2702 0.979561 33.2897C0.934901 33.3431 0.89596 33.4009 0.863376 33.4624C0.829014 33.521 0.800762 33.583 0.779065 33.6474C0.77084 33.672 0.75336 33.6916 0.747191 33.7173C0.743531 33.7555 0.742158 33.794 0.743079 33.8324C0.733796 33.9012 0.731729 33.9708 0.73691 34.04C0.752213 34.2409 0.829849 34.4321 0.958997 34.5868C0.97771 34.6191 0.998309 34.6504 1.02069 34.6803C1.0392 34.6988 1.06387 34.706 1.08444 34.7224C1.13785 34.7667 1.19574 34.8053 1.25717 34.8375C1.31583 34.8719 1.37784 34.9001 1.44224 34.9218C1.46692 34.93 1.48645 34.9485 1.51216 34.9547C7.31881 36.3164 13.2634 37.0028 19.2277 37C25.1914 37.0026 31.1353 36.3163 36.9413 34.9547C37.1197 34.9126 37.2836 34.8237 37.4161 34.6971C37.5486 34.5705 37.6448 34.4109 37.6949 34.2346C37.745 34.0584 37.7471 33.872 37.701 33.6947C37.655 33.5174 37.5623 33.3556 37.4327 33.226ZM19.2267 2.05658C19.6462 2.05658 20.2549 2.85825 20.2549 4.11419C20.2549 5.37014 19.6462 6.17078 19.2267 6.17078C18.8072 6.17078 18.1985 5.36911 18.1985 4.11419C18.1985 2.85928 18.8072 2.05658 19.2267 2.05658ZM29.2145 34.2569C28.8402 33.8129 25.3958 29.5835 25.3958 24.6975C25.3958 24.4249 25.2875 24.1635 25.0947 23.9707C24.9018 23.778 24.6403 23.6697 24.3676 23.6697C24.0949 23.6697 23.8334 23.778 23.6406 23.9707C23.4478 24.1635 23.3394 24.4249 23.3394 24.6975C23.4947 28.2596 24.7173 31.6929 26.8486 34.5518C21.7837 35.0562 16.6809 35.0503 11.6171 34.5344C13.7416 31.6793 14.9598 28.2524 15.114 24.6975C15.114 24.4249 15.0057 24.1635 14.8128 23.9707C14.62 23.778 14.3585 23.6697 14.0858 23.6697C13.8131 23.6697 13.5516 23.778 13.3588 23.9707C13.1659 24.1635 13.0576 24.4249 13.0576 24.6975C13.0576 29.6185 9.56488 33.8714 9.23484 34.263C7.38726 34.0146 5.54964 33.6972 3.72584 33.3113C7.69911 28.7755 10.0841 23.0682 10.519 17.0549L10.9426 11.1164C10.9683 10.4844 11.1897 9.87587 11.5763 9.37506C11.9629 8.87425 12.4956 8.50589 13.1008 8.32089C13.3463 8.25955 13.5983 8.22848 13.8514 8.22839H24.6021C24.8551 8.22841 25.1072 8.25948 25.3526 8.32089C25.958 8.50571 26.4909 8.874 26.8778 9.37482C27.2646 9.87564 27.4861 10.4842 27.5118 11.1164L27.9344 17.0549C28.3638 23.0777 30.7483 28.7957 34.7255 33.3401C32.9006 33.7142 31.0623 34.02 29.2145 34.2569Z" fill="#488873"/>
</svg>
