<svg width="212" height="207" viewBox="0 0 212 207" fill="none" xmlns="http://www.w3.org/2000/svg">
<path d="M194.849 8.98626C195.552 9.13269 196.021 9.26786 196.258 9.39177C197.353 9.96624 198.462 10.5948 199.586 11.2774C199.969 11.5094 200.378 11.693 200.813 11.8282C202.124 12.236 203.535 12.6268 205.044 13.0008C205.287 13.0616 205.617 13.261 206.034 13.5989C206.923 15.471 204.415 15.7718 203.219 15.7684C200.965 15.7583 198.512 15.8326 196.39 16.6571C193.141 17.9232 191.099 20.2977 190.263 23.7806C189.84 25.5491 189.426 26.9785 189.023 28.0688C187.18 33.0611 183.734 36.1835 178.686 37.4361C177.055 37.8394 175.616 38.273 174.371 38.7371C171.322 39.8725 169.23 42.1265 168.092 45.499C167.529 47.1661 166.976 48.8264 166.433 50.48C166.058 51.6154 165.04 52.9029 163.817 53.2104C162.04 53.6531 160.776 51.6627 160.276 50.2063C159.921 49.1722 158.241 49.01 157.329 48.7768C154.906 48.1584 154.274 45.8775 155.994 44.0425C156.339 43.6753 156.704 43.3453 157.089 43.0524C159.836 40.9607 162.482 39.048 164.409 36.1081C166.014 33.6649 166.642 29.8936 165.26 27.1801C164.956 26.5854 164.474 26.1753 163.814 25.9501C162.489 25.4939 161.077 25.1661 159.769 24.6153C157.214 23.5384 154.994 21.8522 153.108 19.5565C149.227 14.8301 147.322 9.17888 147.394 2.60287C147.421 -0.0836275 149.594 -0.766233 151.466 0.909872C153.916 3.103 156.636 5.68812 159.789 6.63431C161.346 7.1029 163.208 7.46898 165.375 7.73256C167.637 8.00741 169.473 8.70466 170.883 9.82431C171.879 10.6151 172.92 11.5826 174.006 12.7271C175.15 13.9323 176.189 14.7907 177.121 15.3021C179.678 16.7056 182.177 16.5389 184.616 14.8019C186.113 13.7375 187.712 11.6491 189.097 10.5035C190.64 9.22168 192.558 8.71592 194.849 8.98626Z" fill="white"/>
<path d="M91.8326 64.4092C91.7177 63.9733 91.2818 63.703 90.8661 63.5982C89.3117 63.2062 87.6998 62.8413 87.0003 61.2564C86.4528 60.0196 87.3483 58.6409 88.3283 57.8569C90.9303 55.7786 93.9041 53.7342 96.0364 51.3011C98.2531 48.7667 99.7468 44.938 98.6147 41.6365C98.3748 40.937 97.9997 40.4031 97.2461 40.1902C94.3129 39.3589 91.2615 38.1289 88.9197 36.2365C87.6175 35.1844 86.3796 33.8226 85.2059 32.151C82.0114 27.5957 80.5031 22.2881 80.6811 16.228C80.725 14.7242 81.6138 13.3793 83.3101 13.724C84.084 13.8794 84.7767 14.4268 85.3174 14.9675C87.0904 16.7315 88.9219 18.2003 90.8121 19.3741C93.1606 20.8339 96.0837 21.2056 98.9526 21.5739C101.417 21.8893 103.501 22.8918 105.204 24.5815C106.006 25.3767 106.818 26.1922 107.641 27.028C110.516 29.9612 114.146 30.9108 117.707 28.2919C118.836 27.4606 119.671 26.2474 120.603 25.21C123.57 21.922 127.761 21.6483 131.086 24.5071C132.745 25.9365 134.651 26.3725 136.915 26.8591C137.435 26.9706 138.236 27.3153 138.426 27.8695C138.872 29.1874 137.027 29.6199 136.087 29.6537C133.431 29.7517 130.231 29.6165 127.811 30.9987C124.635 32.8099 123.31 35.1855 122.722 38.5546C122.504 39.8027 122.14 41.0654 121.631 42.3428C119.693 47.2089 116.208 50.2817 111.175 51.5613C106.796 52.6731 102.609 53.8795 100.598 58.2387C99.6724 60.2528 99.1655 62.4932 98.3376 64.5512C97.5097 66.6125 95.2321 69.2855 93.0423 66.9301C92.5287 66.3759 92.1255 65.5356 91.8326 64.4092Z" fill="white"/>
<path d="M72.6585 206.8C70.9993 206.513 70.266 205.354 70.2762 203.762C70.3009 199.831 70.3088 196.129 70.2998 192.655C70.2964 190.306 68.6034 188.444 66.2988 188.292C63.8049 188.127 62.0511 189.742 62.0308 192.263C61.9993 196.241 61.9936 200.244 62.0139 204.269C62.0207 206.04 60.6352 206.865 59.0334 206.848C54.7125 206.803 50.4592 206.804 46.2734 206.851C44.8609 206.865 43.7255 205.722 43.7525 204.286C43.8358 199.898 43.8663 195.509 43.8437 191.121C43.882 169.507 43.8651 152.719 43.793 140.756C43.7908 140.25 43.5587 139.859 43.0969 139.584C42.6475 139.314 42.1068 139.648 41.7554 139.932C39.2581 141.936 36.8217 143.906 34.2061 145.856C31.5613 147.825 28.9987 149.824 26.5183 151.854C23.0952 154.655 19.2564 157.376 15.7081 160.191C14.9309 160.806 14.2337 161.23 13.6164 161.464C11.7578 162.164 10.1493 160.474 9.47345 158.839C6.73288 152.199 3.72535 145.822 0.548864 139.131C0.129838 138.25 -0.0492607 137.507 0.0115656 136.901C0.190666 135.096 1.37002 134.329 3.0022 133.657C13.8293 129.205 24.2971 124.855 34.4055 120.606C36.1762 119.859 37.6225 119.221 39.5724 119.126C40.9241 119.062 42.394 119.339 43.7626 119.471C43.9248 119.486 44.0161 119.413 44.0363 119.251C44.354 116.564 45.3678 115.253 48.1793 115.284C49.3418 115.295 50.4851 115.298 51.6092 115.294C55.1541 115.274 58.4995 114.746 61.9429 113.645C65.4033 112.536 67.8093 110.935 70.408 108.772C74.4563 105.399 78.374 102.144 82.161 99.0059C83.792 97.6542 85.2845 96.494 86.6385 95.5253C87.4134 94.9711 88.4081 94.4507 89.6223 93.9641C97.71 90.7223 107.655 86.6661 119.458 81.7954C121.535 80.9371 123.623 80.0912 125.723 79.2576C131.792 76.8449 137.662 74.3206 143.646 71.945C153.875 67.8899 164.172 63.5408 174.549 59.31C180.087 57.0504 186.008 54.6455 192.314 52.0953C197.117 50.1511 201.39 48.3702 205.132 46.7527C207.267 45.8302 208.724 45.0563 210.44 46.6175C212.198 48.2159 212.613 50.8855 210.944 52.6765C210.435 53.2217 209.725 53.6813 208.815 54.0552C207.382 54.6455 205.951 55.2357 204.52 55.826C190.823 61.4738 177.575 66.9741 164.777 72.3268C164.594 72.4034 164.54 72.5341 164.615 72.7188C165.922 75.9189 164.577 79.3286 161.766 81.1804C160.43 82.059 159.003 82.6988 157.484 83.0998C156.144 83.4535 155.139 84.1497 154.47 85.1882C153.249 87.0828 152.156 88.8378 151.192 90.4531C146.554 98.2028 141.95 105.904 137.381 113.557C135.245 117.137 133.206 120.622 131.261 124.012C130.23 125.81 129.46 126.921 128.953 127.344C127.156 128.845 125.331 129.132 123.101 129.115C112.4 129.029 101.694 129.027 90.9842 129.108C90.1709 129.115 89.575 129.447 89.1966 130.105C88.9848 130.472 88.8789 131.114 88.8789 132.031C88.8767 155.461 88.8699 179.489 88.8586 204.117C88.8586 205.129 88.5061 205.864 87.8009 206.324C87.3706 206.606 86.6508 206.751 85.6416 206.76C81.3094 206.8 76.9817 206.814 72.6585 206.8ZM98.3205 106.687C95.2747 107.953 92.2672 109.186 89.2979 110.387C88.9104 110.545 88.9262 110.622 89.3452 110.617C97.6762 110.507 106.19 110.508 114.886 110.62C117.281 110.651 118.403 109.688 119.613 107.613C122.064 103.405 124.512 99.2909 126.956 95.2719C127.125 94.997 127.059 94.9193 126.757 95.0387C117.227 98.891 107.749 102.774 98.3205 106.687Z" fill="white"/>
<path d="M54.8297 95.5794C49.9276 91.9613 47.6241 86.9443 47.9192 80.5282C48.3281 71.6476 55.6103 65.2642 64.2308 64.5985C69.6207 64.1794 74.9835 66.7409 78.4777 70.9312C81.7984 74.9119 82.9867 79.5798 82.0428 84.9347C79.8598 97.3399 64.812 102.943 54.8297 95.5794Z" fill="white"/>
</svg>
