<svg width="29" height="37" viewBox="0 0 29 37" fill="none" xmlns="http://www.w3.org/2000/svg">
<path fill-rule="evenodd" clip-rule="evenodd" d="M13.6816 36.7789C13.682 36.7791 13.6823 36.7793 14.2691 35.9405L13.6816 36.7789ZM14.8566 36.7789L14.8602 36.7762L14.8695 36.7696L14.9019 36.7462C14.9297 36.7261 14.9698 36.697 15.0212 36.659C15.1239 36.583 15.2722 36.4717 15.4596 36.3267C15.8343 36.0367 16.3657 35.6116 17.0017 35.0643C18.2723 33.9708 19.9673 32.3835 21.665 30.4067C25.036 26.4816 28.5382 20.8799 28.5382 14.4756C28.5382 10.6475 27.0362 6.97487 24.361 4.2661C21.6854 1.55716 18.0554 0.0341797 14.2691 0.0341797C10.4828 0.0341797 6.85272 1.55716 4.17717 4.2661C1.50192 6.97487 0 10.6475 0 14.4756C0 20.8799 3.50214 26.4816 6.87311 30.4067C8.57082 32.3835 10.2659 33.9708 11.5364 35.0643C12.1724 35.6116 12.7039 36.0367 13.0785 36.3267C13.266 36.4717 13.4143 36.583 13.517 36.659C13.5684 36.697 13.6084 36.7261 13.6362 36.7462L13.6687 36.7696L13.6779 36.7762L13.6816 36.7789C14.0335 37.0283 14.5046 37.0283 14.8566 36.7789ZM14.2691 35.9405L14.8566 36.7789C14.8561 36.7791 14.8558 36.7793 14.2691 35.9405ZM19.3652 14.3967C19.3652 17.2296 17.0835 19.5262 14.2691 19.5262C11.4546 19.5262 9.17298 17.2296 9.17298 14.3967C9.17298 11.5638 11.4546 9.26723 14.2691 9.26723C17.0835 9.26723 19.3652 11.5638 19.3652 14.3967Z" fill="white"/>
</svg>
