<svg width="24" height="39" viewBox="0 0 24 39" fill="none" xmlns="http://www.w3.org/2000/svg">
<path d="M19.2844 0.477295H4.21756C3.099 0.477295 2.02624 0.921644 1.2353 1.71259C0.444349 2.50354 0 3.57629 0 4.69486V34.3051C0 35.4236 0.444349 36.4964 1.2353 37.2873C2.02624 38.0783 3.099 38.5226 4.21756 38.5226H19.2844C20.403 38.5226 21.4758 38.0783 22.2667 37.2873C23.0577 36.4964 23.502 35.4236 23.502 34.3051V4.69486C23.502 3.57629 23.0577 2.50354 22.2667 1.71259C21.4758 0.921644 20.403 0.477295 19.2844 0.477295ZM20.3607 34.3051C20.3607 34.5905 20.2473 34.8642 20.0454 35.0661C19.8436 35.2679 19.5699 35.3813 19.2844 35.3813H4.21756C3.93214 35.3813 3.6584 35.2679 3.45657 35.0661C3.25474 34.8642 3.14136 34.5905 3.14136 34.3051V4.69486C3.14136 4.40943 3.25474 4.13569 3.45657 3.93387C3.6584 3.73204 3.93214 3.61865 4.21756 3.61865H19.2844C19.5699 3.61865 19.8436 3.73204 20.0454 3.93387C20.2473 4.13569 20.3607 4.40943 20.3607 4.69486V34.3051Z" fill="white"/>
<path d="M13.2049 31.0183H10.2963C9.87969 31.0183 9.48019 31.1838 9.18563 31.4784C8.89107 31.7729 8.72559 32.1724 8.72559 32.589C8.72559 33.0056 8.89107 33.4051 9.18563 33.6996C9.48019 33.9942 9.87969 34.1597 10.2963 34.1597H13.2049C13.6215 34.1597 14.021 33.9942 14.3156 33.6996C14.6101 33.4051 14.7756 33.0056 14.7756 32.589C14.7756 32.1724 14.6101 31.7729 14.3156 31.4784C14.021 31.1838 13.6215 31.0183 13.2049 31.0183Z" fill="white"/>
</svg>
