<svg width="228" height="195" viewBox="0 0 228 195" fill="none" xmlns="http://www.w3.org/2000/svg">
<path fill-rule="evenodd" clip-rule="evenodd" d="M159.588 135.391L176.739 164.847C180.299 170.966 178.596 178.98 172.914 182.813L159.241 192.052C157.894 192.966 156.394 193.584 154.825 193.871C153.257 194.158 151.651 194.109 150.1 193.726C148.549 193.343 147.084 192.634 145.788 191.64C144.492 190.646 143.391 189.386 142.549 187.932L125.397 158.476L121.111 151.114L52.5039 33.299C51.0901 30.8835 50.1333 28.191 49.6885 25.3761C49.2438 22.5613 49.3198 19.6795 49.9123 16.8964C50.5049 14.1133 51.6021 11.4837 53.1411 9.15855C54.6801 6.83342 56.6306 4.85861 58.8804 3.34754C61.1232 1.82638 63.6229 0.797172 66.2361 0.318989C68.8492 -0.159194 71.5244 -0.076937 74.1079 0.561044C76.6915 1.19903 79.1326 2.38017 81.2911 4.03668C83.4497 5.69318 85.2832 7.79244 86.6864 10.214L155.294 128.029L159.588 135.391ZM138.101 97.5043L175.496 33.2903C176.91 30.8748 177.867 28.1823 178.312 25.3674C178.757 22.5526 178.68 19.6708 178.088 16.8877C177.495 14.1046 176.398 11.475 174.859 9.14986C173.32 6.82473 171.37 4.84992 169.12 3.33885C166.877 1.81633 164.376 0.786018 161.762 0.307098C159.148 -0.171822 156.472 -0.0899136 153.888 0.548118C151.303 1.18615 148.861 2.36773 146.702 4.025C144.543 5.68227 142.709 7.78257 141.306 10.2053L114.089 56.949M89.9554 98.3995L72.6987 128.029L68.4127 135.391L51.2609 164.847C50.4137 166.296 49.8402 167.911 49.5735 169.599C49.3068 171.286 49.3521 173.014 49.7068 174.683C50.0615 176.352 50.7186 177.93 51.6404 179.325C52.5622 180.72 53.7306 181.905 55.0787 182.813L68.7517 192.052C74.434 195.885 81.8759 194.051 85.4434 187.932L102.595 158.476L106.881 151.114L113.782 139.259" fill="white"/>
<path d="M81.6254 169.958L67.9443 160.736M163.098 30.0483L149.417 20.8177" stroke="black" stroke-width="3"/>
<path d="M17.1429 11.4395V193.964M9.01493 185.333H25.1578M210.857 11.4395V193.964M218.985 185.333H202.842M9.07143 11.5003H17.1429V46.2669H9.07143C4.59986 46.2669 1 42.3904 1 37.5753V20.192C1 15.3768 4.59986 11.5003 9.07143 11.5003ZM218.929 11.5003H210.857V46.2669H218.929C223.4 46.2669 227 42.3904 227 37.5753V20.192C227 15.3768 223.4 11.5003 218.929 11.5003Z" stroke="white" stroke-width="2" stroke-linecap="round" stroke-linejoin="round"/>
<path d="M146.366 169.958L160.047 160.727M64.9014 30.0483L78.5744 20.8177" stroke="#020002" stroke-width="3"/>
</svg>
