<svg width="31" height="26" viewBox="0 0 31 26" fill="none" xmlns="http://www.w3.org/2000/svg">
<path d="M28.3705 0.229657C24.2808 1.94846 6.74572 9.32012 1.90061 11.3294C-1.34883 12.6163 0.553257 13.8228 0.553257 13.8228C0.553257 13.8228 3.32693 14.7879 5.70445 15.5118C8.08197 16.2358 9.35003 15.4313 9.35003 15.4313L20.5243 7.79009C24.4868 5.05556 23.5359 7.30756 22.585 8.27261C20.5243 10.364 17.1166 13.6615 14.2637 16.3159C12.9956 17.4419 13.6296 18.4073 14.1844 18.8898C16.245 20.6593 21.8717 24.2787 22.1888 24.5201C23.8632 25.723 27.1563 27.4547 27.6572 23.7962L29.6386 11.1684C30.2726 6.90552 30.9067 2.96418 30.9859 1.83818C31.2235 -0.896344 28.3705 0.229657 28.3705 0.229657Z" fill="black"/>
</svg>
