<svg width="212" height="324" viewBox="0 0 212 324" fill="none" xmlns="http://www.w3.org/2000/svg">
<path d="M139.747 280.282C139.55 280.184 139.34 280.139 139.118 280.148C137.263 280.21 135.385 280.252 133.485 280.273C133.385 280.273 133.289 280.306 133.21 280.367C133.131 280.428 133.074 280.514 133.049 280.611C132.857 281.33 132.663 282.037 132.469 282.733C130.478 289.845 128.069 297.707 125.239 306.318C125.011 307.01 124.781 307.737 124.547 308.499C123.51 311.904 122.456 315.245 121.386 318.524C121.03 319.624 120.686 320.733 120.357 321.851C120 323.062 119.246 323.668 118.095 323.668C110.09 323.671 101.992 323.636 93.8039 323.564C93.6349 323.563 93.4685 323.525 93.3162 323.452C93.164 323.38 93.0297 323.276 92.9227 323.146C92.4611 322.592 92.1014 321.937 91.8437 321.182C89.0832 313.107 86.7948 306.096 84.9784 300.15C84.7057 299.263 84.4284 298.399 84.1467 297.56C82.3453 292.195 80.7733 286.978 79.4305 281.91C79.3181 281.487 79.399 281.038 79.2417 280.651C79.1989 280.547 79.1265 280.458 79.0336 280.396C78.9408 280.334 78.8316 280.3 78.7202 280.3L72.6012 280.246C72.5418 280.246 72.4829 280.257 72.4278 280.28C72.3728 280.302 72.3227 280.336 72.2804 280.378C72.2382 280.42 72.2047 280.47 72.1818 280.526C72.1589 280.581 72.1472 280.641 72.1472 280.701C72.1606 285.633 72.5293 291.171 71.3559 295.789C70.4027 299.538 69.1184 302.757 67.5029 305.446C64.603 310.284 61.1322 314.568 56.5059 317.589C55.4899 318.252 54.3824 318.908 53.1835 319.559C45.9226 323.51 37.4658 324.585 29.4182 322.948C24.4682 321.946 19.5677 319.172 15.6517 316.137C13.134 314.186 10.6673 311.677 8.2515 308.611C2.71705 301.588 -0.0749025 292.349 0.0015277 283.528C0.136405 268.638 0.0195009 252.857 0.145386 239.019C0.262279 225.711 0.0734565 212.381 0.0240017 199.491C0.0150099 196.807 0.118412 193.664 0.104925 191.493C-0.088399 164.261 0.109421 137.87 0.0914374 110.715C0.0884401 107.274 0.212834 104.283 0.464604 101.741C1.05207 95.7859 2.221 89.9457 3.9714 84.2209C4.50191 82.4885 5.14932 80.6931 5.91363 78.8348C6.88924 76.4565 7.67152 74.0962 8.71007 71.6998C10.9176 66.5925 13.2195 62.3394 15.8855 57.794C16.9016 56.0646 18.0181 54.3082 19.235 52.5249C21.357 49.4182 23.4566 46.2621 25.781 43.3667C29.8213 38.3313 34.0984 33.6241 38.6123 29.2451C42.9553 25.028 47.5231 21.6111 52.2573 18.1403C56.5194 15.0111 61.8231 11.9164 68.1683 8.85623C73.4015 6.33403 78.7156 4.51769 84.2906 2.91715C87.8303 1.90108 91.46 1.12479 95.1796 0.588277C97.1578 0.30054 99.3159 0.131193 101.654 0.0802392C106.977 -0.0366541 112.318 -0.149047 117.398 0.696181C119.347 1.02288 121.367 1.40353 123.459 1.83814C125.509 2.26375 127.477 2.7508 129.362 3.2993C134.844 4.89684 140.841 7.38907 147.354 10.776C152.777 13.5934 156.835 15.9373 159.529 17.8076C161.927 19.468 164.644 21.5137 167.68 23.9444C170.108 25.8837 172.341 27.8664 174.379 29.8925C180.221 35.7012 184.813 40.8745 188.155 45.4123C189.512 47.2557 191.282 49.7943 193.464 53.0284C198.707 60.8018 202.897 69.4519 206.21 78.2054C207.334 81.1847 208.259 84.0441 208.984 86.7836C210.096 90.9827 210.863 94.8867 211.286 98.4954C211.745 102.407 211.951 106.837 211.907 111.785C211.718 132.116 212.1 154.375 211.974 172.705C211.887 185.758 211.877 196.585 211.943 205.187C212.005 213.698 211.79 226.273 211.893 237.882C211.959 245.357 211.954 252.887 211.88 260.473C211.853 263.27 211.847 266.272 211.862 269.479C211.91 279.672 211.845 286.01 211.668 288.492C211.488 291.049 211.01 293.533 210.234 295.946C209.874 297.064 209.492 298.26 209.088 299.534C208.668 300.856 208.151 302.058 207.537 303.14C205.996 305.852 204.364 308.248 202.64 310.328C197.989 315.942 191.99 319.959 184.643 322.377C182.446 323.103 180.154 323.498 177.765 323.564C174.914 323.642 172.533 323.548 170.621 323.281C164.68 322.457 159.468 320.441 154.984 317.234C150.52 314.047 146.1 308.849 143.542 303.531C142.658 301.696 141.955 300.037 141.433 298.554C140.647 296.315 140.161 293.707 140.035 291.297C139.849 287.734 139.852 284.231 140.044 280.79C140.051 280.686 140.026 280.582 139.973 280.491C139.921 280.401 139.842 280.328 139.747 280.282ZM14.6806 292.88C17.5625 302.658 25.228 310.131 35.573 311.03C48.1705 312.127 57.6479 301.53 59.6351 290.362C59.9738 288.462 60.1446 285.655 60.1476 281.941C60.1836 225.985 60.1716 168.997 60.1116 110.976C60.1115 110.846 60.0763 110.719 60.0097 110.608C59.9432 110.497 59.8478 110.406 59.734 110.347L50.2971 105.388L36.2115 97.7491C36.1837 97.7336 36.1528 97.7248 36.1211 97.7232C36.0894 97.7216 36.0578 97.7273 36.0287 97.7399C35.9996 97.7526 35.9737 97.7717 35.9532 97.7959C35.9327 97.8201 35.918 97.8487 35.9102 97.8794C35.1459 100.886 34.4446 103.853 33.8062 106.781C33.4855 108.25 33.3251 109.851 33.3251 111.583C33.3281 117.781 33.2906 123.971 33.2127 130.151C33.2111 130.255 33.2419 130.356 33.3007 130.442C33.3595 130.527 33.4435 130.592 33.5409 130.628C37.6561 132.117 40.4316 134.957 41.8673 139.147C43.0587 142.632 42.6496 146.871 40.6894 150.131C39.0499 152.849 36.7045 154.75 33.6533 155.832C33.5244 155.876 33.4525 155.966 33.4375 156.101C33.3326 157.129 33.2801 158.157 33.2801 159.185C33.2502 169.799 33.2352 180.394 33.2352 190.971C33.2352 191.235 33.3581 191.411 33.6038 191.497C37.1106 192.729 39.7722 195.211 41.3278 198.628C43.1052 202.533 43.0392 206.572 41.13 210.744C40.8422 211.365 40.7613 212.066 40.7523 212.75C40.6534 219.637 40.6474 226.033 40.7343 231.938C40.7403 232.289 40.8902 232.567 41.1839 232.774C45.3561 235.728 46.4801 239.433 46.3542 244.513C46.3062 246.563 46.3062 248.745 46.3542 251.059C46.5116 258.581 41.4447 265.014 33.5184 263.958C33.4832 263.953 33.4474 263.956 33.4135 263.967C33.3795 263.977 33.3481 263.995 33.3214 264.018C33.2946 264.041 33.2731 264.07 33.2583 264.102C33.2434 264.135 33.2355 264.17 33.2352 264.205C33.2412 266.864 33.2307 269.783 33.2037 272.963C33.1857 275.216 31.8459 277.463 29.5755 277.864C26.1631 278.466 23.9961 275.795 23.9557 272.504C23.9107 268.545 23.8927 264.413 23.9017 260.109C23.9107 258.154 22.7867 256.656 22.8002 254.687C22.8212 250.779 22.8092 246.505 22.7642 241.865C22.7493 240.309 22.9411 239.025 23.3397 238.012C24.4547 235.186 26.325 233.176 28.9506 231.983C29.6609 231.659 30.4702 231.556 31.239 231.403C31.3228 231.385 31.3981 231.339 31.4521 231.272C31.5062 231.205 31.5357 231.121 31.5357 231.034L31.4503 217.754C31.4473 217.556 31.3484 217.467 31.1536 217.488C26.3609 217.995 22.5439 216.382 19.7025 212.651C17.6749 209.98 16.506 207.04 16.6903 203.641C16.9555 198.668 19.2799 194.505 23.7533 192.388C23.9841 192.277 24.0995 192.092 24.0995 191.835L24.0321 156.07C24.0322 156.01 24.0165 155.951 23.9865 155.899C23.9565 155.846 23.9133 155.803 23.8612 155.773C18.5381 152.824 15.5438 147.105 16.6004 141.022C17.4006 136.394 19.773 133.145 23.7174 131.275C23.8358 131.219 23.9361 131.13 24.0069 131.02C24.0776 130.909 24.1159 130.781 24.1175 130.65C24.1535 123.93 24.1535 117.339 24.1175 110.877C24.1055 108.812 24.2958 106.738 24.6885 104.655C25.7525 98.969 27.1942 93.8152 29.0135 89.1934C30.1795 86.2291 31.4038 83.1344 32.6867 79.9094C33.6488 77.4816 35.1864 75.364 37.9064 75.0628C39.1593 74.9249 40.2683 75.2261 41.2334 75.9664C43.7151 77.8592 43.6657 81.5953 42.1505 84.095C41.4162 85.3089 40.7448 86.5933 40.1364 87.948C40.0426 88.1547 40.0313 88.3895 40.1048 88.6043C40.1783 88.8191 40.3312 88.9976 40.532 89.1034L52.7204 95.4741L61.1457 99.7093C61.3975 99.8352 61.5503 99.7602 61.6043 99.4845C62.965 92.2011 65.5172 85.7915 69.2608 80.2555C71.0831 77.558 72.9849 75.0957 74.9661 72.8688C78.0832 69.362 82.0306 66.1954 86.8083 63.369C91.0704 60.8483 95.8225 59.1773 101.065 58.356C101.209 58.3351 101.281 58.2511 101.281 58.1043V48.4066L101.186 36.1373C101.186 36.094 101.176 36.0512 101.159 36.0117C101.141 35.9722 101.115 35.9368 101.083 35.9077C101.051 35.8785 101.013 35.8563 100.972 35.8425C100.931 35.8286 100.888 35.8234 100.844 35.8271C98.9622 35.995 97.1533 36.3007 95.4179 36.7443C84.2891 39.6067 74.4775 45.0302 65.9833 53.0149C62.5274 56.2639 59.722 59.3301 57.567 62.2135C55.7506 64.6413 53.5207 66.561 50.2836 64.9965C48.9468 64.3461 48.1406 63.2281 47.8648 61.6425C47.5591 59.8861 47.9682 58.3455 49.0922 57.0208C52.7159 52.7541 56.5869 48.3572 60.6646 44.72C71.7021 34.8785 86.1564 27.5232 101.02 25.9226C101.173 25.9077 101.249 25.8237 101.249 25.6709L101.236 12.7722C101.236 12.7342 101.228 12.6966 101.213 12.6617C101.197 12.6269 101.175 12.5956 101.146 12.5698C101.118 12.544 101.085 12.5243 101.048 12.5119C101.012 12.4996 100.973 12.4948 100.934 12.4979C95.887 12.9505 91.0179 13.9081 86.3272 15.3708C77.1106 18.2482 68.6329 22.4263 60.8939 27.9053C53.6436 33.0396 47.4422 38.4018 42.2899 43.9917C37.5482 49.135 33.2876 54.605 29.5081 60.4017C27.7217 63.1382 26.0507 66.0185 24.4952 69.0428C19.3728 78.9907 15.6757 90.103 13.4038 102.38C13.0022 104.559 12.7998 106.308 12.7968 107.627C12.6844 164.846 12.7519 220.779 12.7609 276.447C12.7609 279.181 12.7848 281.916 12.8328 284.652C12.8718 287.074 13.4877 289.817 14.6806 292.88ZM110.96 47.1747L110.902 57.8795C110.902 58.1792 111.05 58.353 111.347 58.401C120.204 59.8756 128.054 64.2232 134.609 70.2836C142.755 77.8158 148.147 87.0054 150.785 97.8525C150.941 98.4939 151.035 99.1533 151.068 99.8307C151.07 99.8615 151.079 99.8916 151.095 99.9179C151.112 99.9441 151.134 99.9658 151.161 99.9807C151.187 99.9956 151.217 100.003 151.248 100.003C151.278 100.003 151.307 99.9945 151.333 99.979L159.475 95.4786L172.329 88.9101C172.378 88.8856 172.421 88.8513 172.455 88.8094C172.49 88.7675 172.516 88.719 172.53 88.667C172.545 88.6149 172.549 88.5605 172.541 88.5071C172.534 88.4538 172.515 88.4027 172.487 88.3571C171.485 86.7536 170.541 85.2115 169.654 83.7309C167.568 80.2465 169.398 75.409 173.709 74.9414C176.537 74.6357 178.264 76.9825 179.266 79.3024C181.382 84.1969 183.238 88.9071 184.832 93.433C186.932 99.408 188.442 105.145 188.442 110.998C188.442 116.663 188.442 122.324 188.442 127.979C188.314 128.966 188.354 129.887 188.564 130.744C188.606 130.909 188.702 131.031 188.852 131.109C195.128 134.458 197.502 141.705 195.092 148.382C194.028 151.328 192.032 153.543 189.103 155.027C188.92 155.118 188.766 155.26 188.658 155.434C188.551 155.609 188.495 155.811 188.496 156.016C188.501 157.275 188.339 158.565 188.339 159.819C188.366 169.441 188.363 180.204 188.33 192.109C188.33 192.31 188.421 192.449 188.604 192.527C191.599 193.804 193.959 197.252 194.935 200.224C195.552 202.1 195.721 204.09 195.443 206.195C194.864 210.571 192.486 213.975 188.308 216.409C186.18 217.371 183.753 217.75 181.029 217.547C180.849 217.535 180.759 217.619 180.759 217.798L180.871 231.012C180.871 231.204 180.964 231.325 181.15 231.376C184.456 232.284 186.816 234.339 188.231 237.54C188.663 238.736 188.891 239.866 188.915 240.93C188.983 243.894 188.992 248.275 188.941 254.071C188.928 255.73 188.366 257.556 188.353 259.026C188.32 263.336 188.272 267.644 188.209 271.952C188.194 272.86 188.156 273.682 188.096 274.42C186.941 277.652 183.582 279.392 180.75 277.086C179.554 276.109 178.944 274.877 178.92 273.39C178.875 270.609 178.871 267.499 178.907 264.061C178.907 264.035 178.902 264.008 178.891 263.984C178.88 263.96 178.864 263.939 178.843 263.921C178.823 263.904 178.799 263.892 178.774 263.885C178.748 263.878 178.721 263.877 178.695 263.881C172.77 265.001 168.215 261.966 166.035 256.549C165.549 255.341 165.317 253.911 165.338 252.259C165.377 249.235 165.362 246.121 165.293 242.917C165.251 240.969 165.477 239.382 165.972 238.156C167.033 235.512 168.939 233.745 171.349 232.356C171.467 232.289 171.564 232.193 171.632 232.076C171.7 231.959 171.736 231.826 171.736 231.691L171.682 211.378C171.679 211.051 171.594 210.729 171.434 210.443C167.595 203.551 170.598 193.97 178.772 191.884C178.911 191.848 179.034 191.766 179.122 191.652C179.21 191.537 179.257 191.396 179.257 191.25L179.325 156.326C179.325 156.251 179.3 156.179 179.256 156.118C179.212 156.058 179.149 156.012 179.077 155.989C173.017 154.02 169.101 148.278 169.915 141.939C170.637 136.328 173.649 132.577 178.952 130.686C179.042 130.654 179.121 130.595 179.177 130.516C179.232 130.437 179.262 130.342 179.262 130.245C179.253 123.834 179.242 117.428 179.23 111.025C179.227 108.846 179.048 107.193 178.691 106.066C177.867 103.453 177.039 100.775 176.209 98.0323C176.201 98.0068 176.187 97.9833 176.169 97.9637C176.151 97.944 176.129 97.9287 176.104 97.9188C176.08 97.9088 176.053 97.9046 176.027 97.9064C176.001 97.9081 175.976 97.9158 175.953 97.9289C168.157 102.191 160.304 106.3 152.394 110.257C152.259 110.326 152.192 110.435 152.192 110.585L152.295 278.938C152.116 282.853 152.179 286.181 152.484 288.924C152.931 292.886 154.361 296.784 156.773 300.617C159.255 304.556 162.477 307.372 166.44 309.065C175.346 312.864 184.347 311.246 191.005 304.524C196.171 299.309 199.156 292.093 199.152 284.774C199.147 278.632 199.273 272.316 199.269 266.219C199.233 228.87 199.227 192.641 199.251 157.531C199.251 156.281 199.249 155.007 199.246 153.709C199.213 137.599 199.167 121.489 199.107 105.379C199.104 104.506 199.065 103.595 198.99 102.645C198.315 98.2691 197.284 93.9321 195.897 89.634C194.098 84.077 192.224 79.1046 190.272 74.7166C185.192 63.282 178.241 52.8995 169.42 43.569C164.25 38.102 158.955 33.3918 153.536 29.4384C145.863 23.8395 137.428 19.4021 128.229 16.1261C122.717 14.1629 117.018 12.97 111.131 12.5474C111.115 12.5461 111.099 12.5483 111.084 12.5539C111.068 12.5594 111.054 12.5682 111.043 12.5796C111.031 12.591 111.021 12.6048 111.015 12.6201C111.008 12.6355 111.005 12.652 111.005 12.6687L111.023 25.5989C111.023 25.6618 111.046 25.7226 111.088 25.7699C111.131 25.8171 111.189 25.8475 111.252 25.8552C123.459 27.1141 135.018 32.2753 145.111 39.4103C151.918 44.2209 158.014 50.6276 163.077 57.1961C164.866 59.516 164.878 61.7175 163.113 63.8006C161.723 65.4371 159.152 66.1429 157.272 64.8976C156.439 64.3461 155.724 63.6672 155.128 62.8609C148.159 53.4645 139.476 46.1931 129.079 41.0468C123.48 38.2774 117.632 36.4385 111.536 35.5304C111.463 35.5201 111.389 35.5254 111.318 35.5459C111.248 35.5665 111.183 35.6019 111.127 35.6496C111.072 35.6974 111.027 35.7564 110.997 35.8227C110.967 35.889 110.951 35.9611 110.951 36.0339L110.96 47.1747ZM94.5637 88.0379C94.2759 88.2627 94.0781 88.5729 94.0781 88.9686C94.0736 93.1677 93.9433 97.6906 93.9388 101.557C93.9148 132.561 93.9178 163.564 93.9477 194.568C93.9522 197.032 93.7859 199.509 93.8758 201.977C93.8781 202.055 93.9104 202.128 93.9658 202.181C94.0212 202.235 94.0954 202.265 94.1725 202.265L101.388 202.261C101.484 202.261 101.575 202.223 101.643 202.155C101.71 202.088 101.748 201.996 101.748 201.901L101.676 83.2318L101.829 71.4616C101.835 71.1049 101.661 70.955 101.308 71.012C99.0146 71.3956 96.9046 72.112 94.9773 73.161C94.3614 73.4982 93.9792 74.0287 93.9747 74.7391C93.9597 78.7194 94.0002 82.6279 94.0961 86.4644C94.1141 87.0893 94.3704 87.4714 94.5637 88.0379ZM110.416 83.596L110.452 201.941C110.452 202.039 110.491 202.133 110.56 202.202C110.629 202.271 110.723 202.31 110.821 202.31L117.978 202.324C118.04 202.324 118.1 202.298 118.144 202.254C118.187 202.209 118.212 202.148 118.212 202.085L118.059 87.912L118.086 73.8219C118.086 73.6305 118.025 73.4442 117.912 73.2904C117.798 73.1366 117.639 73.0235 117.457 72.9677C115.344 72.3083 113.363 71.6669 111.513 71.0434C111.318 70.9775 111.118 70.9685 110.911 71.0165C110.791 71.043 110.684 71.1096 110.607 71.2053C110.53 71.3009 110.488 71.4198 110.488 71.5425L110.416 83.596ZM78.0053 108.643C77.8285 109.356 77.7401 110.329 77.7401 111.56C77.6861 139.399 77.6771 167.236 77.7131 195.072C77.7161 196.984 77.6846 198.895 77.6187 200.804C77.6037 201.233 77.6247 201.624 77.6816 201.977C77.6968 202.076 77.7469 202.166 77.8229 202.23C77.8989 202.294 77.9956 202.329 78.0952 202.328L85.2797 202.247C85.3938 202.245 85.5024 202.198 85.5822 202.116C85.6621 202.035 85.7068 201.925 85.7068 201.811L85.6124 93.6263C85.3876 93.4225 85.2872 93.1063 85.3111 92.6777C85.458 89.9562 85.6004 87.2961 85.7382 84.6975C85.8371 82.8242 85.8476 80.9809 85.7697 79.1675C85.7659 79.0864 85.7385 79.0082 85.6909 78.9424C85.6433 78.8766 85.5776 78.8261 85.5018 78.797C85.426 78.7679 85.3434 78.7615 85.264 78.7786C85.1846 78.7957 85.112 78.8356 85.0549 78.8933C84.6293 79.3249 84.1932 79.743 83.7466 80.1476C83.267 80.5822 82.8489 81.1068 82.4922 81.7212C81.3173 83.7444 80.1423 85.7645 78.9674 87.7817C78.4954 88.5909 78.1087 89.643 78.0862 90.5287C77.9633 95.1145 77.827 99.7962 77.6771 104.574C77.6501 105.343 77.7625 106.075 77.821 106.831C77.8614 107.352 78.1717 107.919 78.0053 108.643ZM126.799 93.7252C126.679 94.2827 126.621 95.0216 126.624 95.9417C126.681 131.333 126.699 166.691 126.678 202.013C126.678 202.053 126.686 202.092 126.701 202.128C126.716 202.164 126.738 202.197 126.766 202.225C126.794 202.252 126.828 202.274 126.864 202.289C126.901 202.303 126.94 202.311 126.979 202.31L134.447 202.238C134.55 202.237 134.648 202.196 134.72 202.123C134.793 202.051 134.833 201.953 134.833 201.852C134.89 174.433 134.86 145.872 134.743 116.169C134.737 114.092 134.725 111.919 134.708 109.65C134.702 108.789 134.507 107.892 134.123 106.957C134.072 106.654 134.093 106.486 134.186 106.453C134.331 106.4 134.456 106.303 134.546 106.175C134.635 106.048 134.683 105.895 134.685 105.738C134.706 101.557 134.751 97.1661 134.82 92.5653C134.833 91.5043 134.631 90.3983 134.199 89.4272C133.252 87.2901 131.986 85.225 130.4 83.2318C129.384 81.9505 128.723 80.5073 127.253 79.5766C127.189 79.5366 127.115 79.5141 127.039 79.5115C126.963 79.5088 126.887 79.5261 126.82 79.5615C126.753 79.597 126.696 79.6494 126.655 79.7135C126.615 79.7777 126.591 79.8514 126.588 79.9273C126.516 81.4425 126.7 83.052 126.651 84.4952C126.591 86.4074 126.604 88.3197 126.691 90.2319C126.706 90.5856 126.678 91.1641 126.606 91.9673C126.54 92.6777 126.604 93.2637 126.799 93.7252ZM187.103 143.499C187.103 142.409 186.67 141.364 185.899 140.594C185.128 139.823 184.083 139.39 182.993 139.39C181.904 139.39 180.858 139.823 180.088 140.594C179.317 141.364 178.884 142.409 178.884 143.499C178.884 144.589 179.317 145.634 180.088 146.405C180.858 147.176 181.904 147.609 182.993 147.609C184.083 147.609 185.128 147.176 185.899 146.405C186.67 145.634 187.103 144.589 187.103 143.499ZM33.5004 143.481C33.5004 142.397 33.0699 141.358 32.3035 140.592C31.537 139.825 30.4975 139.395 29.4137 139.395C28.3298 139.395 27.2903 139.825 26.5239 140.592C25.7575 141.358 25.3269 142.397 25.3269 143.481C25.3269 144.565 25.7575 145.605 26.5239 146.371C27.2903 147.138 28.3298 147.568 29.4137 147.568C30.4975 147.568 31.537 147.138 32.3035 146.371C33.0699 145.605 33.5004 144.565 33.5004 143.481ZM33.5409 204.342C33.5409 203.286 33.1212 202.273 32.3742 201.526C31.6272 200.779 30.614 200.359 29.5575 200.359C28.5011 200.359 27.4879 200.779 26.7409 201.526C25.9939 202.273 25.5742 203.286 25.5742 204.342C25.5742 205.399 25.9939 206.412 26.7409 207.159C27.4879 207.906 28.5011 208.326 29.5575 208.326C30.614 208.326 31.6272 207.906 32.3742 207.159C33.1212 206.412 33.5409 205.399 33.5409 204.342ZM186.563 204.41C186.563 203.341 186.139 202.317 185.383 201.561C184.628 200.806 183.603 200.381 182.535 200.381C181.466 200.381 180.442 200.806 179.686 201.561C178.931 202.317 178.507 203.341 178.507 204.41C178.507 204.939 178.611 205.463 178.813 205.951C179.016 206.44 179.312 206.884 179.686 207.258C180.06 207.632 180.505 207.929 180.993 208.131C181.482 208.334 182.006 208.438 182.535 208.438C183.064 208.438 183.588 208.334 184.076 208.131C184.565 207.929 185.009 207.632 185.383 207.258C185.757 206.884 186.054 206.44 186.257 205.951C186.459 205.463 186.563 204.939 186.563 204.41ZM140.063 213.142C140.063 213.122 140.059 213.103 140.052 213.085C140.044 213.067 140.033 213.05 140.02 213.037C140.006 213.023 139.99 213.012 139.972 213.004C139.954 212.997 139.934 212.993 139.915 212.993L72.2336 212.875C72.2142 212.875 72.1949 212.879 72.1769 212.886C72.1588 212.893 72.1425 212.904 72.1287 212.918C72.1149 212.932 72.1039 212.948 72.0964 212.966C72.0889 212.984 72.0851 213.003 72.085 213.023L72.0475 234.513C72.0475 234.533 72.0513 234.552 72.0587 234.57C72.0661 234.588 72.077 234.604 72.0908 234.618C72.1045 234.632 72.1209 234.643 72.1389 234.651C72.1568 234.658 72.1761 234.662 72.1956 234.662L139.877 234.78C139.896 234.78 139.916 234.776 139.934 234.769C139.952 234.761 139.968 234.751 139.982 234.737C139.996 234.723 140.006 234.707 140.014 234.689C140.021 234.671 140.025 234.651 140.025 234.632L140.063 213.142ZM37.2379 243.411C37.2372 243.034 37.1624 242.661 37.0176 242.314C36.8729 241.966 36.661 241.65 36.3942 241.384C36.1274 241.118 35.8108 240.907 35.4625 240.764C35.1143 240.62 34.7411 240.547 34.3645 240.547L34.0947 240.548C33.718 240.549 33.3452 240.623 32.9974 240.768C32.6496 240.913 32.3338 241.125 32.0679 241.392C31.802 241.658 31.5913 241.975 31.4478 242.323C31.3042 242.672 31.2307 243.045 31.2314 243.421L31.2466 252.188C31.2473 252.565 31.3221 252.938 31.4669 253.286C31.6117 253.633 31.8235 253.949 32.0903 254.215C32.3571 254.481 32.6737 254.692 33.022 254.835C33.3703 254.979 33.7434 255.052 34.1201 255.052L34.3898 255.051C34.7665 255.051 35.1394 254.976 35.4871 254.831C35.8349 254.686 36.1507 254.474 36.4166 254.208C36.6825 253.941 36.8932 253.624 37.0367 253.276C37.1803 252.928 37.2538 252.554 37.2532 252.178L37.2379 243.411ZM180.183 243.29C180.183 242.577 179.9 241.893 179.396 241.389C178.892 240.885 178.208 240.602 177.495 240.602H176.991C176.278 240.602 175.595 240.885 175.09 241.389C174.586 241.893 174.303 242.577 174.303 243.29V252.309C174.303 253.022 174.586 253.706 175.09 254.21C175.595 254.714 176.278 254.997 176.991 254.997H177.495C178.208 254.997 178.892 254.714 179.396 254.21C179.9 253.706 180.183 253.022 180.183 252.309V243.29ZM72.0527 259.709L72.1606 268.998C72.1636 269.139 72.2356 269.209 72.3764 269.209L139.9 269.231C139.934 269.231 139.966 269.218 139.989 269.195C140.013 269.171 140.026 269.139 140.026 269.106L140.017 259.642L140.013 245.107C140.013 244.981 139.948 244.918 139.819 244.918L72.2506 244.886C72.1277 244.886 72.0662 244.948 72.0662 245.071L72.0527 259.709ZM110.92 280.602L90.8231 280.606C90.5593 280.606 90.4619 280.733 90.5309 280.988C91.1183 283.146 91.7418 285.249 92.4012 287.296C94.9009 295.071 97.489 302.867 100.166 310.684C100.199 310.779 100.261 310.862 100.343 310.92C100.425 310.978 100.524 311.009 100.624 311.007L107.008 310.998L111.751 311.021C111.91 311.021 112.015 310.944 112.066 310.792C114.506 303.358 116.89 296.192 119.219 289.292C120.046 286.84 121.041 284.08 122.204 281.011C122.225 280.958 122.232 280.901 122.226 280.844C122.219 280.788 122.199 280.734 122.166 280.687C122.134 280.641 122.09 280.603 122.04 280.577C121.989 280.551 121.933 280.538 121.876 280.539L110.92 280.602Z" fill="white"/>
</svg>
