<svg width="33" height="33" viewBox="0 0 33 33" fill="none" xmlns="http://www.w3.org/2000/svg">
<path d="M31.7337 2.90084C32.1852 2.44929 32.1852 1.71719 31.7337 1.26566C31.2821 0.814117 30.55 0.814117 30.0984 1.26566L26.3955 4.96866C26.7066 5.18934 27.0034 5.43906 27.2821 5.71782C27.5607 5.99637 27.8101 6.29292 28.0307 6.60374L31.7337 2.90084ZM0.774733 16.5922L1.91725 18.4702C5.05166 23.6228 9.37671 27.9478 14.5291 31.0823L16.4073 32.225C19.3343 33.719 23.1196 32.7592 24.7541 29.6635C25.5265 28.2006 26.2604 26.5612 26.7262 24.9321C27.4785 22.3005 27.742 19.9066 27.8248 18.2546C27.8743 17.2674 27.8989 16.7738 27.664 16.1639C27.429 15.554 27.022 15.147 26.2077 14.3329L18.7687 6.89508C18.011 6.13746 17.632 5.75864 17.0621 5.52389C16.492 5.28916 16.0378 5.29098 15.1295 5.29463C13.4134 5.30152 10.8372 5.48153 8.06748 6.27333C6.4384 6.73905 4.79895 7.47304 3.33618 8.24538C0.240515 9.87989 -0.719296 13.6652 0.774733 16.5922Z" fill="#488873"/>
</svg>
