<svg width="212" height="210" viewBox="0 0 212 210" fill="none" xmlns="http://www.w3.org/2000/svg">
<path d="M78.8041 59.0921C98.9913 38.8151 122.069 22.7194 148.038 10.8049C157.325 6.54185 167.062 3.05065 176.772 0.505469C177.423 0.333944 178.081 0.191439 178.743 0.0779678C181.197 -0.337652 183.331 0.940878 184.502 3.13773C184.777 3.6523 184.914 4.23417 184.914 4.88333C184.895 26.5774 184.92 49.0459 184.989 72.289C185.001 75.5704 183.224 78.1275 179.966 78.9785C175.976 80.0195 172.497 76.5244 172.489 72.5502C172.449 53.5162 172.451 34.3119 172.493 14.9374C172.493 14.9096 172.486 14.8823 172.474 14.8575C172.461 14.8327 172.443 14.8112 172.421 14.7946C172.4 14.7781 172.374 14.767 172.347 14.7622C172.321 14.7575 172.293 14.7592 172.267 14.7672C165.934 16.6856 159.784 19.0421 153.818 21.8367C146.495 25.2645 139.814 28.7544 133.777 32.3063C130.392 34.2974 126.735 36.7357 123.256 38.9444C121.868 39.8258 120.493 40.7375 119.131 41.6796C112.785 46.068 105.633 51.7837 97.6772 58.8269C90.3807 65.2868 83.9802 71.5831 78.4755 77.7158C77.9742 78.2752 77.5084 78.8531 77.0783 79.4495C76.9991 79.5604 76.9806 79.6791 77.0229 79.8058C78.1312 83.2099 77.8541 86.519 75.2812 89.0682C74.3286 90.0102 73.2216 90.695 71.9602 91.1225C71.0234 91.4418 69.861 91.5935 68.473 91.5777C61.8098 91.4959 55.4673 91.4735 49.4455 91.5104C48.3873 91.5183 47.374 91.0987 46.4055 90.2517C45.2629 89.2489 43.6717 87.5548 41.6318 85.1692C37.9137 80.8178 34.3525 76.6352 30.9484 72.6215C28.4191 69.6369 24.4726 69.154 21.5356 71.8298C20.1977 73.049 18.9073 75.3408 19.4733 77.2289C19.8085 78.3504 20.4035 79.4192 21.2585 80.4351C25.135 85.0505 28.9495 89.6751 32.7019 94.3089C34.7444 96.8303 36.9135 99.2132 39.0748 101.687C39.4587 102.127 39.8902 102.641 40.5314 102.633C42.2889 102.613 44.4976 102.273 46.0057 103.017C47.5692 103.789 48.5588 105.483 48.5628 107.253C48.5707 111.514 48.5694 115.612 48.5588 119.547C48.5509 122.219 46.457 124.503 43.7614 124.503C33.4619 124.492 22.9909 124.492 12.3484 124.503C11.1029 124.503 10.1978 124.355 9.63304 124.059C6.09829 122.199 6.63265 118.451 6.62869 114.975C6.60494 102.05 6.64848 89.6065 6.75932 77.6445C6.7989 73.5992 8.03257 69.8665 10.4603 66.4466C14.4028 60.8838 19.7438 57.9745 26.4834 57.7185C32.2388 57.5021 37.118 59.7439 41.1212 64.4437C44.7655 68.7186 48.3662 72.9302 51.9234 77.0785C52.3693 77.5984 52.8602 78.0813 53.3958 78.5272C53.5014 78.6143 53.6215 78.6579 53.756 78.6579L60.2001 78.642C60.3751 78.6408 60.5477 78.6015 60.7062 78.5271C60.8648 78.4526 61.0054 78.3446 61.1184 78.2106C65.3261 73.2311 69.5615 68.2832 74.0898 63.7787C77.1878 60.6965 78.7592 59.1343 78.8041 59.0921Z" fill="white"/>
<path d="M32.4901 48.7342C41.517 48.4032 48.5698 40.9093 48.243 31.996C47.9162 23.0827 40.3335 16.1253 31.3066 16.4563C22.2797 16.7873 15.2269 24.2813 15.5537 33.1946C15.8805 42.1079 23.4632 49.0653 32.4901 48.7342Z" fill="white"/>
<path d="M147.081 113.087C145.162 114.166 143.579 115.123 142.331 115.957C140.035 117.493 137.684 119.287 135.277 121.34C131.815 124.177 128.548 127.186 125.476 130.369C121.55 134.38 118.611 137.638 116.661 140.142C115.922 141.089 114.876 142.657 113.522 144.844C111.994 147.314 109.916 150.208 108.313 153.022C108.089 153.418 107.901 153.884 107.751 154.419C107.598 154.963 107.434 155.446 107.26 155.868C104.054 155.908 101.303 155.127 99.0072 153.525C95.5952 151.138 92.0406 149.222 88.0428 149.202C59.7595 149.049 32.599 149.061 6.56144 149.238C4.71688 149.25 2.91982 148.431 1.69671 147.116C-2.04783 143.091 0.869423 137.233 5.93207 136.556C6.16165 136.524 7.43886 136.508 9.76369 136.508C36.6695 136.495 63.5739 136.492 90.4771 136.5C94.1148 136.504 98.461 138.681 101.449 140.835C101.473 140.852 101.5 140.865 101.529 140.871C101.558 140.877 101.588 140.877 101.618 140.87C101.647 140.864 101.674 140.852 101.699 140.834C101.723 140.816 101.743 140.793 101.758 140.767C103.146 138.358 104.749 135.945 106.568 133.528C110.945 127.701 115.724 122.312 120.904 117.362C127.554 111.008 135.187 105.552 143.803 100.994C150.121 97.6497 157.277 95.065 164.374 93.4777C175.054 91.0869 185.12 91.5817 195.427 94.4396C198.895 95.4027 203.179 97.0995 208.28 99.5299C209.716 100.215 211.407 100.975 211.85 102.605C212.21 103.932 211.842 105.416 211.577 106.77C210.057 114.533 207.348 121.736 203.451 128.378C201.556 131.61 199.81 134.26 198.214 136.326C196.53 138.503 194.831 140.675 193.115 142.841C191.469 144.92 189.371 146.598 187.689 148.561C187.614 148.648 187.516 148.713 187.407 148.748C187.297 148.783 187.18 148.787 187.069 148.76C186.957 148.733 186.855 148.676 186.774 148.595C186.693 148.513 186.635 148.412 186.608 148.3C186.414 147.492 187.111 146.162 187.328 145.339C187.815 143.483 186.857 141.492 185.215 140.573C183.342 139.524 180.932 139.172 178.854 138.677C172.125 137.074 166.385 133.441 162.474 127.832C159.719 123.885 157.863 119.741 157.222 114.979C156.95 112.955 156.856 110.814 156.941 108.555C156.942 108.522 156.935 108.489 156.92 108.46C156.905 108.431 156.882 108.406 156.854 108.388C156.826 108.37 156.794 108.36 156.761 108.358C156.727 108.356 156.694 108.362 156.664 108.377L147.081 113.087ZM198.641 108.871C195.087 107.256 191.362 106.018 187.558 105.083C181.617 103.631 175.513 103.67 169.524 104.715C169.207 104.771 169.05 104.958 169.053 105.277C169.081 108.301 168.709 111.931 169.469 114.742C171.879 123.66 180.528 127.701 189.177 127.369C189.287 127.364 189.394 127.334 189.491 127.283C189.587 127.232 189.671 127.159 189.735 127.072C193.749 121.657 196.781 115.729 198.831 109.287C198.892 109.094 198.829 108.956 198.641 108.871Z" fill="white"/>
<path d="M177.788 112.822C177.354 115.5 179.135 118.017 181.766 118.443C184.396 118.869 186.88 117.043 187.314 114.365C187.748 111.687 185.967 109.171 183.336 108.745C180.706 108.319 178.222 110.144 177.788 112.822Z" fill="white"/>
<path d="M147.08 113.087C147.236 115.721 147.398 117.561 147.567 118.609C148.715 125.644 151.585 131.791 156.177 137.051C161.415 143.049 167.803 147.033 175.343 149.005C175.417 149.023 175.484 149.064 175.536 149.121C175.588 149.177 175.622 149.248 175.634 149.324C175.645 149.4 175.635 149.478 175.603 149.548C175.571 149.617 175.519 149.676 175.453 149.717C172.695 151.475 170.007 153.541 166.987 154.776C162.158 156.75 157.272 156.209 152.329 153.153C149.978 151.701 148.085 150.251 146.649 148.803C141.049 143.156 137.503 136.622 136.009 129.201C135.6 127.169 135.356 124.549 135.277 121.34C137.683 119.287 140.035 117.493 142.331 115.957C143.579 115.123 145.162 114.166 147.08 113.087Z" fill="white"/>
<path d="M125.476 130.369C126.152 134.689 127.42 138.778 129.28 142.636C130.159 144.452 131.362 146.222 132.443 147.908C132.511 148.015 132.549 148.14 132.551 148.267C132.553 148.395 132.521 148.52 132.456 148.63C132.392 148.739 132.298 148.828 132.186 148.888C132.074 148.947 131.948 148.974 131.821 148.965C128.143 148.717 124.749 149.494 121.641 151.296C118.85 152.919 116.218 154.871 112.944 155.627C111.364 155.991 109.469 156.071 107.26 155.868C107.434 155.446 107.598 154.963 107.751 154.419C107.902 153.884 108.089 153.418 108.313 153.022C109.916 150.208 111.994 147.314 113.522 144.844C114.876 142.657 115.922 141.089 116.661 140.142C118.611 137.638 121.55 134.38 125.476 130.369Z" fill="white"/>
<path d="M32.2071 174.128C28.6895 173.671 25.4516 174.198 22.4935 175.707C22.0343 175.939 21.6213 176.23 21.2545 176.578C21.211 176.62 21.1528 176.644 21.0923 176.644C21.0317 176.644 20.9735 176.62 20.93 176.578C18.1064 173.852 15.457 171.092 12.9817 168.297C12.9016 168.207 12.8598 168.089 12.8649 167.968C12.8701 167.847 12.9219 167.732 13.0094 167.648C14.569 166.164 16.279 164.513 18.0048 163.381C22.8062 160.246 28.5378 158.971 34.1942 160.016C38.4889 160.812 41.1251 162.558 44.5807 165.245C50.2411 169.647 57.6233 170.565 64.0832 167.355C67.2182 165.792 69.7198 163.037 72.9973 161.608C79.5403 158.75 87.445 158.892 93.517 162.894C95.4328 164.157 97.2418 165.827 99.1694 166.86C105.796 170.415 113.34 169.999 119.464 165.574C120.759 164.64 122.102 163.717 123.493 162.807C129.937 158.595 138.649 158.679 145.367 162.352C145.857 162.621 146.943 163.382 148.624 164.636C153.081 167.965 157.574 169.825 163.234 169.101C166.437 168.693 169.302 167.719 171.812 165.728C174.61 163.504 177.528 161.453 180.956 160.515C188.26 158.51 194.748 159.952 200.418 164.842C201.276 165.58 202.115 166.335 202.936 167.106C203.321 167.47 203.333 167.846 202.972 168.234L195.229 176.578C195.19 176.621 195.136 176.649 195.077 176.655C195.019 176.662 194.961 176.647 194.912 176.614C192.667 175.02 190.339 174.138 187.93 173.969C182.622 173.593 179.206 175.826 175.339 179.004C168.776 184.388 159.43 185.27 151.739 181.941C149.016 180.762 146.408 178.612 143.851 176.768C142.784 176 141.747 175.427 140.739 175.05C134.789 172.836 129.371 173.715 124.487 177.686C122.782 179.072 121.131 180.212 119.535 181.106C112.738 184.914 103.516 184.938 96.7668 180.766C94.9354 179.634 93.1436 178.409 91.3914 177.093C88.1377 174.652 84.4657 173.618 80.3755 173.993C75.4079 174.444 72.0829 177.872 68.1365 180.406C65.0517 182.387 61.5525 183.541 57.6391 183.865C51.5829 184.367 46.234 182.736 41.5922 178.973C38.7145 176.637 35.8962 174.607 32.2071 174.128Z" fill="white"/>
<path d="M81.191 200.977C78.1774 201.162 75.499 202.189 73.1556 204.06C71.703 205.22 70.1355 206.819 68.4493 207.563C68.0297 207.748 67.5916 207.782 67.1351 207.666C64.2561 206.935 61.5698 206.053 59.076 205.018C53.1307 202.554 47.6973 199.727 42.7758 196.54C39.7701 194.589 36.7012 192.437 33.5688 190.084C33.1809 189.793 32.9579 189.432 32.8999 188.999C32.6149 186.854 34.8434 186.458 36.213 187.455C38.8611 189.371 41.4775 191.338 44.3829 192.973C52.2836 197.414 61.2729 196.832 68.4572 191.33C69.7634 190.33 71.1066 189.478 72.4867 188.773C78.8793 185.508 86.8355 185.512 92.856 189.533C94.5027 190.631 96.1454 191.766 97.7841 192.938C98.9162 193.748 100.114 194.359 101.378 194.77C107.622 196.807 113.447 196.166 118.854 192.846C121.593 191.164 123.956 189.054 127.321 187.827C134.076 185.368 140.272 186.079 145.909 189.961C147.125 190.797 148.397 191.662 149.725 192.554C154.87 196.016 160.355 196.898 166.179 195.202C170.789 193.858 175.162 191.391 179.297 187.8C180.437 186.81 182.21 186.513 182.903 188.172C183.426 189.419 181.466 190.745 180.58 191.406C174.17 196.2 166.984 200.407 159.023 204.025C155.434 205.655 152.142 206.81 149.147 207.488C148.209 207.698 147.322 207.16 146.665 206.566C142.905 203.186 138.927 200.367 133.725 200.878C130.955 201.15 128.547 201.977 126.501 203.36C123.94 205.089 121.49 207.175 118.565 208.165C111.414 210.585 104.385 210.552 97.4793 208.066C95.4171 207.322 93.3706 205.861 91.5934 204.48C88.5336 202.105 85.1453 200.735 81.191 200.977Z" fill="white"/>
</svg>
