<svg width="212" height="192" viewBox="0 0 212 192" fill="none" xmlns="http://www.w3.org/2000/svg">
<path d="M74.9371 1.54969C74.4445 1.05775 73.8599 0.667682 73.2165 0.401779C72.5732 0.135876 71.8837 -0.0006503 71.1876 2.32876e-06C70.4915 0.000654957 69.8023 0.138474 69.1594 0.405582C68.5166 0.672691 67.9326 1.06385 67.441 1.55672C57.5345 11.4773 57.5345 27.6055 67.441 37.5026C67.448 37.5097 67.4527 37.5167 67.4621 37.5214L67.4808 37.5401C73.2645 43.3495 73.2762 52.7665 67.5113 58.5244C66.7676 59.2644 66.2606 60.2087 66.0545 61.2374C65.8485 62.2662 65.9528 63.3329 66.3541 64.3023C66.7555 65.2717 67.4358 66.0999 68.3087 66.6819C69.1816 67.2639 70.2078 67.5734 71.257 67.5712C71.9523 67.572 72.6409 67.436 73.2836 67.1707C73.9263 66.9054 74.5104 66.5161 75.0027 66.0251C84.9045 56.1327 84.8998 39.9951 74.9886 30.0534C74.9769 30.0417 74.9582 30.0347 74.9394 30.0159C74.9324 30.0113 74.9254 29.9972 74.9207 29.9855C69.1604 24.2088 69.1651 14.82 74.9394 9.04106C75.931 8.04652 76.4876 6.69929 76.4872 5.29489C76.4867 3.8905 75.9293 2.54361 74.9371 1.54969ZM109.726 1.54969C108.73 0.557881 107.382 0.00159236 105.976 0.00290988C104.571 0.00422739 103.224 0.563044 102.23 1.55672C99.8611 3.91221 97.9832 6.71404 96.7045 9.80008C95.4259 12.8861 94.7719 16.1951 94.7805 19.5355C94.7718 22.885 95.4296 26.2027 96.7158 29.2954C98.0019 32.3881 99.8906 35.194 102.272 37.5495V37.5542C108.056 43.3566 108.072 52.7594 102.298 58.529C101.302 59.5231 100.743 60.8718 100.742 62.2784C100.741 63.6851 101.299 65.0345 102.293 66.0298C103.287 67.0251 104.636 67.5847 106.042 67.5856C107.449 67.5864 108.798 67.0285 109.794 66.0345C119.595 56.2334 119.672 40.3418 110.061 30.3837C110.054 30.3767 110.054 30.372 110.049 30.3579C109.946 30.2455 109.843 30.1284 109.723 30.0136C108.342 28.6425 107.246 27.0107 106.5 25.2128C105.754 23.4149 105.373 21.4867 105.378 19.5402C105.374 17.5913 105.756 15.6609 106.502 13.8607C107.249 12.0605 108.345 10.4263 109.728 9.05277C110.221 8.56009 110.612 7.97514 110.878 7.33135C111.145 6.68756 111.282 5.99755 111.282 5.30075C111.281 4.60395 111.144 3.91402 110.877 3.27039C110.61 2.62677 110.219 2.04206 109.726 1.54969ZM144.524 1.54969C143.528 0.557881 142.18 0.00159236 140.774 0.00290988C139.369 0.00422739 138.022 0.563044 137.028 1.55672C134.659 3.91198 132.78 6.71367 131.5 9.79969C130.221 12.8857 129.566 16.1948 129.574 19.5355C129.574 26.2773 132.186 32.6208 136.932 37.4066C136.95 37.43 136.981 37.4511 137 37.4722C137.025 37.4909 137.04 37.5214 137.063 37.5448C142.847 43.3472 142.858 52.7571 137.089 58.5267C136.596 59.0186 136.205 59.6027 135.939 60.2456C135.672 60.8885 135.534 61.5777 135.534 62.2738C135.533 63.6795 136.091 65.0281 137.084 66.0228C138.077 67.0174 139.425 67.5767 140.831 67.5776C141.527 67.578 142.216 67.4413 142.86 67.1754C143.503 66.9094 144.088 66.5193 144.58 66.0274C154.435 56.1795 154.47 40.1567 144.707 30.208C144.692 30.194 144.685 30.1823 144.678 30.1705C144.622 30.1143 144.58 30.0628 144.522 30.0042C143.14 28.6326 142.045 27.0007 141.299 25.203C140.552 23.4052 140.17 21.4773 140.174 19.5308C140.174 15.5767 141.72 11.8521 144.526 9.0434C145.518 8.04877 146.076 6.70103 146.075 5.29606C146.075 3.89109 145.517 2.54371 144.524 1.54969ZM0.749605 89.6822C5.10903 124.337 26.4845 154.617 57.2253 170.565V191.026H136.538C146.595 191.026 154.775 182.844 154.775 172.788V170.567C185.518 154.617 206.889 124.34 211.253 89.6845L212 83.7158H0L0.749605 89.6822Z" fill="white"/>
</svg>
