<svg width="23" height="33" viewBox="0 0 23 33" fill="none" xmlns="http://www.w3.org/2000/svg">
<path id="Layer 2" d="M20.1118 0H3.6179C2.99298 0 2.39365 0.24774 1.95177 0.68872C1.50988 1.1297 1.26163 1.7278 1.26163 2.35144V4.70287H22.4681V2.35144C22.4681 1.7278 22.2198 1.1297 21.7779 0.68872C21.3361 0.24774 20.7367 0 20.1118 0ZM22.3986 7.05431H1.33114C1.50213 8.55859 1.99458 10.0087 2.77524 11.3068C3.5559 12.6049 4.60659 13.7207 5.85636 14.5789L3.59552 25.8658C2.75214 25.8608 1.93416 26.1537 1.28623 26.6925C0.638304 27.2313 0.202154 27.9813 0.0549064 28.8101C-0.0923417 29.6388 0.0587966 30.4928 0.481597 31.2211C0.904398 31.9494 1.57163 32.505 2.3653 32.7897C3.15897 33.0744 4.02797 33.0699 4.81863 32.7769C5.60928 32.484 6.27068 31.9215 6.68585 31.1888C7.10102 30.4562 7.24324 29.6007 7.08735 28.7735C6.93145 27.9464 6.4875 27.2009 5.83398 26.6688L6.47017 23.5144H17.2607L18.9572 31.9795C19.0116 32.2451 19.1562 32.4838 19.3665 32.6552C19.5769 32.8266 19.8402 32.9202 20.1118 32.9201C20.191 32.9206 20.2699 32.9127 20.3474 32.8966C20.4991 32.8657 20.6431 32.8054 20.7714 32.719C20.8996 32.6325 21.0096 32.5217 21.0949 32.3929C21.1803 32.2641 21.2393 32.1197 21.2687 31.9681C21.2982 31.8165 21.2974 31.6606 21.2664 31.5093L17.8734 14.5789C19.1231 13.7207 20.1738 12.6049 20.9545 11.3068C21.7351 10.0087 22.2276 8.55859 22.3986 7.05431ZM3.6179 30.5687C3.38489 30.5687 3.15711 30.4997 2.96337 30.3705C2.76962 30.2413 2.61862 30.0577 2.52945 29.8429C2.44028 29.628 2.41695 29.3917 2.4624 29.1636C2.50786 28.9355 2.62007 28.726 2.78484 28.5616C2.9496 28.3972 3.15952 28.2852 3.38806 28.2398C3.6166 28.1945 3.85348 28.2177 4.06876 28.3067C4.28403 28.3957 4.46803 28.5464 4.59749 28.7398C4.72694 28.9331 4.79604 29.1604 4.79604 29.393C4.79604 29.7048 4.67192 30.0038 4.45097 30.2243C4.23003 30.4448 3.93036 30.5687 3.6179 30.5687ZM16.7895 21.1629H6.94143L8.02649 15.7417C10.4954 16.6995 13.2343 16.6995 15.7032 15.7417L16.7895 21.1629Z" fill="#488873"/>
</svg>
