<svg width="246" height="175" viewBox="0 0 246 175" fill="none" xmlns="http://www.w3.org/2000/svg">
<path d="M54.7243 37.9442L54.7567 37.9434L54.789 37.942L54.6026 33.4459C54.789 37.942 54.7901 37.942 54.7913 37.9419L54.7945 37.9418L54.8032 37.9414L54.8307 37.9402L54.925 37.9358C55.0053 37.9319 55.1201 37.9261 55.2685 37.9179C55.5651 37.9015 55.9958 37.8756 56.5517 37.8367C57.6634 37.7589 59.2765 37.6292 61.3203 37.4196C65.4066 37.0007 71.2224 36.2623 78.2007 34.9809C92.1371 32.4219 110.815 27.6787 129.643 18.924C165.881 2.07505 190.194 2.22523 205.935 11.21C209.527 13.2602 213.865 17.536 218.345 23.7144C222.763 29.8075 227.087 37.4256 230.759 45.7554C238.166 62.5576 242.6 81.5045 240.476 96.1455C238.313 111.052 229.632 130.222 216.844 144.363C204.044 158.516 188.037 166.747 171.003 162.319C135.069 152.977 109.44 160.469 87.8555 166.779C85.3801 167.502 82.9579 168.21 80.5795 168.876L80.5791 168.876C59.8364 174.68 18.685 163.822 7.3141 107.961C1.49037 79.3501 5.35474 62.4662 13.7946 52.5809C22.2996 42.6192 36.5565 38.4355 54.7243 37.9442Z" stroke="white" stroke-width="9"/>
<path d="M78.8468 91.9721C74.3727 91.9721 71.9003 90.3594 70.0948 89.1817C68.6749 88.2554 67.8926 87.745 65.8872 87.745C63.8823 87.745 63.1005 88.2554 61.6811 89.1811C59.8762 90.3594 57.4037 91.9721 52.9296 91.9721C48.4554 91.9721 45.9836 90.3594 44.1786 89.1811C42.7592 88.2554 41.9774 87.745 39.9725 87.745C37.6544 87.745 35.7749 85.8404 35.7749 83.4913C35.7749 81.1422 37.6544 79.2376 39.9725 79.2376C44.4462 79.2376 46.9186 80.8508 48.7236 82.0286C50.1434 82.9548 50.9252 83.4652 52.9301 83.4652C54.935 83.4652 55.7168 82.9553 57.1367 82.0286C58.9417 80.8508 61.4141 79.2376 65.8877 79.2376C70.3619 79.2376 72.8343 80.8508 74.6398 82.0286C76.0596 82.9548 76.8419 83.4652 78.8474 83.4652C80.8528 83.4652 81.6351 82.9553 83.055 82.0286C84.86 80.8508 87.3329 79.2376 91.807 79.2376C94.1252 79.2376 96.0047 81.1422 96.0047 83.4913C96.0047 85.8404 94.1252 87.745 91.807 87.745C89.8016 87.745 89.0193 88.2554 87.5994 89.1817C85.7939 90.3594 83.321 91.9721 78.8468 91.9721ZM159.901 131.395C155.426 131.395 152.954 129.782 151.148 128.605C149.728 127.678 148.946 127.168 146.94 127.168C144.935 127.168 144.153 127.678 142.734 128.604C140.929 129.782 138.457 131.395 133.983 131.395C129.509 131.395 127.037 129.782 125.231 128.604C123.812 127.678 123.03 127.168 121.025 127.168C118.707 127.168 116.827 125.263 116.827 122.914C116.827 120.565 118.707 118.661 121.025 118.661C125.498 118.661 127.971 120.273 129.776 121.452C131.196 122.377 131.977 122.888 133.983 122.888C135.987 122.888 136.769 122.377 138.189 121.452C139.994 120.274 142.466 118.661 146.94 118.661C151.414 118.661 153.887 120.273 155.692 121.451C157.112 122.377 157.895 122.888 159.901 122.888C161.905 122.888 162.688 122.377 164.108 121.452C165.913 120.273 168.386 118.661 172.86 118.661C175.178 118.661 177.058 120.565 177.058 122.914C177.058 125.263 175.178 127.168 172.86 127.168C170.855 127.168 170.072 127.678 168.652 128.605C166.847 129.782 164.375 131.395 159.901 131.395ZM192.411 56.4725C187.937 56.4725 185.465 54.8593 183.659 53.6816C182.239 52.7553 181.457 52.2449 179.451 52.2449C177.447 52.2449 176.664 52.7548 175.245 53.6816C173.44 54.8593 170.968 56.473 166.493 56.473C162.019 56.473 159.547 54.8598 157.741 53.6816C156.322 52.7553 155.54 52.2454 153.536 52.2454C151.218 52.2454 149.338 50.3408 149.338 47.9917C149.338 45.6427 151.218 43.7381 153.536 43.7381C158.009 43.7381 160.481 45.3513 162.286 46.529C163.706 47.4558 164.488 47.9657 166.493 47.9657C168.499 47.9657 169.281 47.4558 170.7 46.529C172.505 45.3513 174.977 43.7375 179.451 43.7375C183.925 43.7375 186.398 45.3508 188.204 46.5285C189.623 47.4547 190.405 47.9652 192.411 47.9652C194.417 47.9652 195.199 47.4547 196.619 46.5285C198.424 45.3508 200.896 43.7375 205.371 43.7375C207.689 43.7375 209.569 45.6421 209.569 47.9912C209.569 50.3403 207.689 52.2449 205.371 52.2449C203.366 52.2449 202.584 52.7548 201.164 53.6816C199.359 54.8593 196.886 56.4725 192.411 56.4725Z" fill="white"/>
</svg>
