<svg width="37" height="33" viewBox="0 0 37 33" fill="none" xmlns="http://www.w3.org/2000/svg">
<path id="people" d="M12.95 14.6667C14.4136 14.6667 15.8443 14.2366 17.0612 13.4308C18.2781 12.625 19.2266 11.4797 19.7867 10.1397C20.3468 8.79969 20.4933 7.3252 20.2078 5.90267C19.9223 4.48015 19.2175 3.17347 18.1826 2.14789C17.1477 1.1223 15.8291 0.423869 14.3937 0.140911C12.9582 -0.142047 11.4703 0.00317739 10.1181 0.55822C8.76597 1.11326 7.61025 2.05319 6.79712 3.25915C5.984 4.46511 5.55 5.88294 5.55 7.33334C5.55 9.27826 6.32964 11.1435 7.71741 12.5188C9.10518 13.8941 10.9874 14.6667 12.95 14.6667ZM27.75 18.3333C28.8477 18.3333 29.9207 18.0108 30.8334 17.4064C31.7461 16.8021 32.4575 15.9431 32.8775 14.9381C33.2976 13.9331 33.4075 12.8272 33.1934 11.7603C32.9792 10.6934 32.4506 9.71344 31.6744 8.94425C30.8983 8.17506 29.9093 7.65124 28.8328 7.43902C27.7562 7.2268 26.6402 7.33572 25.6261 7.752C24.612 8.16828 23.7452 8.87323 23.1353 9.7777C22.5255 10.6822 22.2 11.7455 22.2 12.8333C22.2 14.292 22.7847 15.691 23.8256 16.7224C24.8664 17.7539 26.278 18.3333 27.75 18.3333ZM35.15 31.1667C35.6407 31.1667 36.1112 30.9735 36.4581 30.6297C36.8051 30.2859 37 29.8196 37 29.3333C36.9985 27.6199 36.5125 25.9412 35.597 24.4876C34.6815 23.0341 33.3732 21.8639 31.8206 21.1099C30.268 20.3558 28.5333 20.0481 26.8131 20.2217C25.093 20.3952 23.4564 21.043 22.089 22.0917C20.2769 20.303 17.971 19.0861 15.462 18.5944C12.9529 18.1028 10.3532 18.3584 7.99057 19.3291C5.62795 20.2997 3.60826 21.942 2.18622 24.0486C0.764178 26.1553 0.00345986 28.6321 0 31.1667C0 31.6529 0.19491 32.1192 0.541852 32.463C0.888795 32.8068 1.35935 33 1.85 33H24.05C24.5407 33 25.0112 32.8068 25.3581 32.463C25.7051 32.1192 25.9 31.6529 25.9 31.1667" fill="#488873"/>
</svg>
