<svg width="212" height="207" viewBox="0 0 212 207" fill="none" xmlns="http://www.w3.org/2000/svg">
<path d="M191.422 121.027C192.72 122.761 193.971 124.342 195.176 125.768C198.715 129.948 202.119 134.169 205.691 138.276C207.605 140.477 209.395 142.615 211.059 144.69C213.293 147.478 211.26 150.482 207.99 150.492C200.235 150.517 192.516 150.523 184.833 150.511C184.581 150.511 184.339 150.611 184.161 150.788C183.982 150.966 183.882 151.207 183.882 151.458L183.791 185.964C183.791 186.013 183.802 186.061 183.824 186.105C183.845 186.148 183.876 186.186 183.915 186.216C191.546 192.007 198.325 196.792 205.764 202.354C206.602 202.981 207.568 203.954 207.232 205.076C206.946 206.034 206.296 206.512 205.283 206.512C138.719 206.551 72.6769 206.562 7.15589 206.545C6.33223 206.545 5.68108 206.212 5.20243 205.546C4.09814 204.001 5.0603 202.758 6.35774 201.804C8.49707 200.236 10.6182 198.498 12.5607 197.04C17.6071 193.255 22.5212 189.549 27.3028 185.924C27.4272 185.83 27.5282 185.709 27.5978 185.57C27.6674 185.431 27.7036 185.278 27.7037 185.123V151.502C27.7037 151.366 27.6769 151.232 27.6248 151.106C27.5727 150.981 27.4964 150.867 27.4003 150.771C27.3041 150.676 27.19 150.6 27.0644 150.548C26.9389 150.496 26.8044 150.47 26.6686 150.471C19.5351 150.473 12.5109 150.484 5.59604 150.503C3.23804 150.511 1.106 150.54 0.154783 147.89C-0.34816 146.491 0.457275 145.088 1.38298 144.042C4.8562 140.12 8.25653 135.718 11.7589 131.625C14.57 128.34 17.4419 124.84 20.3745 121.125C20.3894 121.106 20.3987 121.083 20.4012 121.058C20.4037 121.034 20.3994 121.01 20.3889 120.988C20.3783 120.966 20.3618 120.947 20.3412 120.934C20.3207 120.921 20.2969 120.914 20.2725 120.914C17.0799 120.909 13.6565 120.918 10.0023 120.943C8.17271 120.954 6.41605 120.48 5.7892 118.614C5.4539 117.627 5.69201 116.701 6.50352 115.833C7.57137 114.692 8.61369 113.617 9.55398 112.36C11.5402 109.714 13.5739 106.992 15.6585 104.437C18.302 101.198 20.8022 98.0005 23.159 94.8444C23.1783 94.8192 23.1901 94.789 23.193 94.7574C23.1958 94.7257 23.1896 94.6939 23.1751 94.6657C23.1606 94.6374 23.1384 94.6139 23.111 94.5977C23.0836 94.5816 23.0522 94.5736 23.0205 94.5747C19.2399 94.6719 15.2431 94.7193 11.03 94.7168C10.1748 94.7168 9.4981 94.5966 9.00002 94.356C7.55315 93.6636 6.60193 91.7283 7.71715 90.3143C9.32073 88.2733 10.9134 86.2543 12.5279 84.3336C16.5466 79.5544 20.4814 74.6684 24.3325 69.6754C24.3521 69.6508 24.3642 69.6211 24.3674 69.5899C24.3705 69.5586 24.3647 69.5271 24.3505 69.4991C24.3363 69.471 24.3143 69.4477 24.2872 69.4318C24.2601 69.4159 24.229 69.4081 24.1976 69.4093C20.3393 69.4677 16.6802 69.4762 13.2204 69.4349C11.5463 69.4154 10.5757 68.5711 10.3084 66.9019C10.1918 66.1694 10.5088 65.4478 11.0337 64.9339C11.8646 64.1212 12.6555 63.2829 13.3771 62.3681C16.3 58.669 19.1974 54.8568 22.2806 51.1102C24.9703 47.8399 27.5202 44.5793 29.9305 41.3284C30.8634 40.071 32.4087 39.2182 34.0888 39.2437C37.5973 39.2972 40.9855 39.3105 44.2534 39.2838C50.0749 39.2328 57.2655 38.7578 65.8253 37.8588C65.9686 37.8442 66.0622 37.7689 66.1059 37.6328C66.3063 36.9987 66.4375 36.339 66.7838 35.7632C69.0543 31.9365 74.0291 31.5902 76.5693 35.2858C76.7588 35.5555 76.8973 36.0001 77.1488 36.1823C77.2532 36.2576 77.3771 36.2856 77.5205 36.2661C81.5319 35.7535 85.3526 35.2943 88.9825 34.8885C89.1696 34.8691 89.2315 34.948 89.1684 35.1254C88.3265 37.4834 89.5292 38.8829 90.8011 40.6432C90.8211 40.6716 90.8335 40.7046 90.8372 40.7391C90.8408 40.7735 90.8356 40.8083 90.822 40.8399C90.8084 40.8715 90.7869 40.8988 90.7596 40.9193C90.7323 40.9398 90.7001 40.9526 90.6663 40.9566C87.1335 41.3891 83.5315 41.7973 79.8603 42.1812C79.7437 42.1933 79.6331 42.2286 79.5286 42.2869C79.4974 42.3045 79.4701 42.3283 79.4484 42.3569C79.4267 42.3855 79.4111 42.4182 79.4026 42.453C79.3941 42.4879 79.3927 42.5241 79.3988 42.5594C79.4048 42.5948 79.4179 42.6286 79.4375 42.6586C84.897 50.9645 97.948 52.0797 106.83 51.6132C110.664 51.4139 114.294 50.5575 117.719 49.0438C119.374 48.3125 121.092 47.1875 122.873 45.669C126.758 42.3525 128.861 37.8697 128.923 32.7237C128.925 32.6945 128.912 32.6836 128.883 32.6909L122.979 34.0029C122.961 34.0074 122.942 34.0064 122.925 34.0001C122.907 33.9937 122.893 33.9823 122.882 33.9673C122.871 33.9524 122.865 33.9345 122.865 33.9162C122.865 33.8978 122.87 33.8797 122.88 33.8644C123.485 32.8731 124.185 31.6595 123.671 30.4531C123.345 29.6975 122.958 28.9893 122.508 28.3284C122.482 28.29 122.466 28.2461 122.46 28.2001C122.455 28.1541 122.46 28.1074 122.476 28.064C122.492 28.0205 122.518 27.9815 122.552 27.9502C122.587 27.9188 122.628 27.8961 122.672 27.8838L127.141 26.692C127.308 26.6471 127.461 26.5568 127.581 26.4308C127.701 26.3048 127.785 26.148 127.822 25.9777C128.38 23.401 130.133 21.2981 132.746 20.8389C134.779 20.4781 137.075 21.5605 138.296 23.2079C138.361 23.2938 138.449 23.3585 138.55 23.3936C138.652 23.4287 138.761 23.4325 138.865 23.4047C149.911 20.5 159.876 17.4204 171.684 13.5608C179.456 11.0218 185.735 8.82903 190.519 6.98248C194.647 5.38861 198.692 3.84334 202.655 2.34666C204.096 1.80241 205.596 1.15491 207.156 0.404139C209.867 -0.904241 213.031 1.1221 211.369 4.21265C210.893 5.09705 210.209 5.72026 209.317 6.08229C193.466 12.5088 176.326 18.6218 157.897 24.4215C152.738 26.0445 147.125 27.6384 141.055 29.2031C140.945 29.2317 140.848 29.298 140.782 29.3906C140.715 29.4831 140.683 29.596 140.691 29.7097C141.128 35.6138 140.283 41.1352 137.261 46.2302C136.858 46.9081 136.457 47.5702 136.059 48.2165C135.908 48.4619 135.733 48.6781 135.534 48.8652C135.378 49.011 135.258 49.1835 135.173 49.3827C135.095 49.5625 134.992 49.7241 134.863 49.8675C133.748 51.1212 132.709 52.415 131.459 53.5375C127.764 56.8467 123.492 59.2339 118.816 60.8994C118.762 60.9184 118.715 60.9538 118.682 61.0009C118.648 61.0479 118.63 61.1042 118.631 61.1618L118.652 83.3788C118.653 83.4861 118.678 83.5919 118.727 83.6875C118.776 83.7832 118.846 83.8659 118.933 83.9291C126.157 89.2282 131.583 96.2366 134.01 104.739C134.642 106.945 135.185 109.305 135.64 111.817C135.664 111.953 135.737 111.991 135.858 111.93C136.667 111.544 137.467 111.113 138.256 110.64C144.401 106.968 150.397 103.33 156.246 99.7244C159.312 97.8341 161.96 96.222 164.191 94.8881C164.519 94.6938 164.492 94.6014 164.11 94.6111C161.81 94.6719 159.229 94.7047 156.37 94.7095C153.92 94.7095 151.719 92.4135 153.479 90.132C154.84 88.3657 156.15 86.7281 157.408 85.2192C161.361 80.4789 165.461 75.305 169.708 69.6973C169.724 69.6783 169.733 69.6554 169.736 69.6313C169.739 69.6071 169.734 69.5826 169.724 69.5608C169.713 69.539 169.696 69.5207 169.675 69.508C169.655 69.4954 169.631 69.489 169.606 69.4895C166.528 69.5114 163.109 69.5357 159.351 69.5624C158.598 69.5673 157.95 69.4203 157.408 69.1214C156.311 68.5128 155.087 66.676 156.067 65.4769C156.628 64.7917 157.284 64.1722 157.831 63.4688C161.903 58.2596 165.883 53.2338 169.77 48.3914C171.165 46.6542 172.899 44.3472 174.971 41.4705C175.37 40.9165 175.96 40.4197 176.742 39.9799C178.933 38.7481 180.784 40.1804 182.103 41.8495C187.446 48.6235 192.981 55.5796 198.708 62.718C199.126 63.238 199.556 63.7397 199.998 64.2232C200.559 64.8391 201.39 65.4696 201.427 66.3625C201.507 68.3597 200.002 69.3692 198.172 69.4057C194.61 69.4737 191.034 69.5102 187.443 69.515C187.422 69.5146 187.402 69.5201 187.385 69.5308C187.368 69.5414 187.354 69.5569 187.345 69.5755C187.335 69.594 187.332 69.6149 187.334 69.6357C187.335 69.6566 187.343 69.6767 187.355 69.6936C192.574 76.5842 197.912 83.2281 203.369 89.6255C204.156 90.5439 204.747 91.5498 204.204 92.818C203.639 94.1301 202.542 94.6731 201.182 94.6804C196.663 94.6998 192.484 94.6962 188.645 94.6695C188.507 94.6695 188.469 94.7314 188.532 94.8553C188.887 95.5502 189.368 96.2743 189.976 97.0275C195.221 103.522 200.406 109.871 205.53 116.074C207.283 118.198 205.552 120.946 202.979 120.906C199.34 120.85 195.518 120.829 191.514 120.841C191.361 120.841 191.33 120.903 191.422 121.027ZM98.2323 115.848C98.0185 116.117 97.8496 116.425 97.7257 116.77C97.5021 117.384 97.2118 117.901 96.8546 118.319C96.4246 118.826 96.0371 119.344 95.692 119.871C92.9125 124.155 89.3567 128.538 85.0246 133.021C84.2252 133.847 83.3432 134.57 82.3786 135.189C80.4507 136.425 77.5752 136.596 75.8659 134.843C74.368 133.305 73.3147 131.158 74.1603 129.052C74.8345 127.372 76.5073 125.888 77.7975 124.522C81.6169 120.476 84.9164 116.066 87.696 111.292C91.8434 104.171 93.9305 96.2245 93.9573 87.4533C93.9815 79.4767 94.0192 71.3288 94.0702 63.0096C94.0702 62.8346 93.9828 62.7374 93.8078 62.718C87.9766 62.1009 82.6204 60.3066 77.7392 57.3351C72.7243 54.281 68.9267 49.3791 66.7838 44.1419C66.751 44.0645 66.6942 43.9998 66.6218 43.9577C66.5495 43.9156 66.4656 43.8984 66.3829 43.9087C57.4878 44.9899 48.6377 45.522 39.8326 45.505C39.8079 45.5055 39.7837 45.5128 39.7629 45.5261C39.742 45.5393 39.7252 45.5581 39.7143 45.5803C39.7034 45.6025 39.6988 45.6273 39.701 45.6519C39.7032 45.6766 39.7122 45.7001 39.7269 45.72C44.9167 52.4332 50.251 59.1099 55.73 65.7502C56.0762 66.173 56.0725 66.6614 55.9158 67.1716C55.3619 68.9793 53.9514 69.4713 52.2312 69.4567C48.4336 69.4178 45.0309 69.4142 42.0229 69.4458C41.9945 69.4456 41.9666 69.4534 41.9423 69.4682C41.9181 69.483 41.8984 69.5042 41.8855 69.5296C41.8727 69.5549 41.8671 69.5834 41.8695 69.6117C41.8719 69.64 41.8821 69.6671 41.899 69.69C42.8782 71.0749 43.9059 72.4379 44.9823 73.7791C48.9086 78.6725 53.1739 83.9242 57.7782 89.5343C58.6018 90.5402 59.6004 91.619 58.7112 93.0148C57.9944 94.1349 56.9436 94.6925 55.5587 94.6877C51.5327 94.6707 47.4921 94.6488 43.437 94.6221C43.3155 94.6221 43.2682 94.6828 43.2949 94.8043C43.3945 95.2659 43.5609 95.6389 43.7942 95.9232C46.8459 99.6187 49.8635 103.335 52.8471 107.072C55.1104 109.907 57.4429 112.59 59.7243 115.305C60.2564 115.939 60.927 116.806 61.0437 117.615C61.3571 119.787 59.4437 120.925 57.5304 120.895C53.7255 120.839 49.8999 120.821 46.0538 120.841C46.0215 120.84 45.9899 120.849 45.9624 120.866C45.9349 120.883 45.9126 120.907 45.8979 120.936C45.8832 120.965 45.8767 120.997 45.8791 121.03C45.8815 121.063 45.8928 121.094 45.9116 121.121C46.7256 122.285 47.6027 123.439 48.543 124.584C53.9199 131.124 59.5142 137.744 65.326 144.443C66.4096 145.694 66.6477 146.957 66.0403 148.233C65.343 149.688 64.0176 150.424 62.0641 150.441C54.831 150.505 47.2832 150.511 39.4208 150.46C39.3597 150.459 39.2991 150.471 39.2425 150.494C39.1859 150.517 39.1345 150.551 39.0911 150.594C39.0477 150.637 39.0133 150.688 38.9898 150.745C38.9664 150.801 38.9543 150.861 38.9543 150.923L38.834 175.512C38.8338 175.532 38.8393 175.552 38.8498 175.569C38.8602 175.585 38.8753 175.599 38.8932 175.608C38.9111 175.617 38.9312 175.62 38.951 175.618C38.9708 175.616 38.9896 175.608 39.0053 175.596C43.0483 172.449 47.0754 169.468 51.0868 166.652C56.1272 163.113 61.1821 159.257 65.7232 156.174C70.6943 152.802 78.2883 147.774 88.5051 141.09C90.5436 139.758 92.5893 138.449 94.6424 137.161C104.424 131.023 114.315 124.981 124.119 118.789C124.243 118.711 124.303 118.599 124.298 118.454C124.188 112.925 123.226 107.804 120.595 102.899C119.334 100.544 117.981 98.6432 116.535 97.1951C113.325 93.9831 109.663 91.8024 105.547 90.6532C105.517 90.6449 105.486 90.6435 105.455 90.649C105.425 90.6545 105.396 90.6669 105.371 90.6852C105.347 90.7034 105.326 90.7271 105.312 90.7544C105.297 90.7816 105.289 90.8119 105.288 90.8427C105.21 95.1068 104.658 99.1073 103.63 102.844C103.358 103.826 103.031 104.845 102.649 105.902C102.287 106.905 101.939 107.899 101.603 108.883C101.458 109.318 101.296 109.743 101.119 110.159C100.934 110.591 100.757 111.018 100.587 111.438C100.31 112.13 100.002 112.751 99.6646 113.3C99.356 113.806 99.0681 114.345 98.8008 114.918C98.6429 115.256 98.4534 115.566 98.2323 115.848ZM151.712 120.476C150.342 119.744 149.813 118.038 150.535 116.613C150.758 116.176 151.019 115.772 151.318 115.403C154.09 111.965 156.845 108.562 159.58 105.195C159.831 104.884 159.782 104.83 159.435 105.034L136.296 118.676C136.209 118.727 136.136 118.8 136.085 118.888C136.034 118.976 136.006 119.076 136.004 119.179C135.941 123.078 135.664 127.083 135.173 131.191C135.035 132.36 134.743 133.403 134.298 134.322C132.906 137.194 129.324 138.225 126.514 136.713C125.058 135.93 124.086 134.687 123.598 132.984C123.088 131.195 123.7 128.414 124.236 126.533C124.331 126.203 124.23 126.126 123.933 126.304C119.004 129.253 113.624 132.572 107.795 136.261C104.955 138.059 102.008 139.891 98.9539 141.757C96.896 143.015 94.8404 144.309 92.7874 145.638C80.9524 153.294 69.1758 161.128 57.4575 169.141C57.1695 169.338 56.8233 169.448 56.5536 169.674C56.4151 169.788 56.4358 169.852 56.6156 169.867C57.1185 169.91 57.619 169.932 58.1171 169.932C91.5154 170.02 124.758 170.022 157.846 169.94C160.495 169.936 162.624 171.376 164.69 172.99C167.18 174.936 169.848 176.898 172.693 178.876C172.71 178.887 172.729 178.894 172.749 178.895C172.769 178.896 172.789 178.892 172.807 178.882C172.824 178.873 172.839 178.859 172.849 178.842C172.859 178.824 172.865 178.805 172.865 178.785L172.886 151.436C172.886 151.313 172.862 151.191 172.815 151.077C172.767 150.963 172.697 150.86 172.61 150.773C172.522 150.686 172.418 150.617 172.304 150.57C172.189 150.523 172.066 150.499 171.943 150.5C165.098 150.539 157.363 150.546 148.738 150.522C145.505 150.511 143.723 147.198 145.913 144.599C152.313 136.997 158.78 129.226 165.313 121.285C165.374 121.21 165.416 121.131 165.441 121.048C165.482 120.898 165.424 120.824 165.266 120.826C161.235 120.88 157.453 120.903 153.92 120.895C152.966 120.893 152.229 120.753 151.712 120.476Z" fill="white"/>
<path d="M106.177 44.8089C112.965 44.8089 118.467 39.3068 118.467 32.5196C118.467 25.7324 112.965 20.2303 106.177 20.2303C99.3903 20.2303 93.8882 25.7324 93.8882 32.5196C93.8882 39.3068 99.3903 44.8089 106.177 44.8089Z" fill="white"/>
</svg>
