<svg width="37" height="38" viewBox="0 0 37 38" fill="none" xmlns="http://www.w3.org/2000/svg">
<path id="Layer 20" d="M0 1.88033C0 1.38163 0.197661 0.903365 0.549499 0.550735C0.901337 0.198105 1.37853 0 1.87611 0H15.0088C16.5016 0 17.9332 0.594316 18.9887 1.65221C20.0442 2.7101 20.6372 4.1449 20.6372 5.64098C20.6372 6.13968 20.4395 6.61795 20.0877 6.97058C19.7358 7.32321 19.2586 7.52131 18.7611 7.52131C18.2635 7.52131 17.7863 7.32321 17.4345 6.97058C17.0826 6.61795 16.885 6.13968 16.885 5.64098C16.885 5.14229 16.6873 4.66402 16.3355 4.31139C15.9836 3.95876 15.5064 3.76066 15.0088 3.76066H1.87611C1.37853 3.76066 0.901337 3.56255 0.549499 3.20992C0.197661 2.85729 0 2.37902 0 1.88033ZM36.7717 17.2802C36.3306 15.8068 35.7 14.3972 34.8956 13.0871C34.5698 12.5214 34.1026 12.0506 33.5401 11.7209C32.9776 11.3912 32.3391 11.214 31.6874 11.2068H5.77841C5.1194 11.2216 4.47591 11.4101 3.91272 11.7534C3.34952 12.0967 2.8865 12.5826 2.57027 13.1623C1.76588 14.4724 1.1352 15.882 0.694159 17.3554C0.425536 18.3093 0.412427 19.3173 0.656152 20.2779C0.899877 21.2385 1.39183 22.1178 2.08248 22.8272C2.64707 23.3806 3.3163 23.8153 4.05085 24.106C4.7854 24.3966 5.57049 24.5372 6.36 24.5195H31.1058C31.8954 24.5372 32.6804 24.3966 33.415 24.106C34.1495 23.8153 34.8188 23.3806 35.3834 22.8272C36.087 22.1105 36.5868 21.2184 36.8309 20.2431C37.075 19.2678 37.0545 18.2449 36.7717 17.2802ZM30.0177 26.3246C29.5201 26.3246 29.0429 26.5227 28.6911 26.8753C28.3393 27.228 28.1416 27.7062 28.1416 28.2049V30.0852C28.1416 30.5839 28.3393 31.0622 28.6911 31.4148C29.0429 31.7675 29.5201 31.9656 30.0177 31.9656C30.5153 31.9656 30.9925 31.7675 31.3443 31.4148C31.6961 31.0622 31.8938 30.5839 31.8938 30.0852V28.2049C31.8938 27.7062 31.6961 27.228 31.3443 26.8753C30.9925 26.5227 30.5153 26.3246 30.0177 26.3246ZM24.3894 31.9656C23.8918 31.9656 23.4146 32.1637 23.0628 32.5163C22.7109 32.8689 22.5133 33.3472 22.5133 33.8459V35.7262C22.5133 36.2249 22.7109 36.7032 23.0628 37.0558C23.4146 37.4085 23.8918 37.6066 24.3894 37.6066C24.887 37.6066 25.3641 37.4085 25.716 37.0558C26.0678 36.7032 26.2655 36.2249 26.2655 35.7262V33.8459C26.2655 33.3472 26.0678 32.8689 25.716 32.5163C25.3641 32.1637 24.887 31.9656 24.3894 31.9656ZM13.1327 31.9656C12.6352 31.9656 12.158 32.1637 11.8061 32.5163C11.4543 32.8689 11.2566 33.3472 11.2566 33.8459V35.7262C11.2566 36.2249 11.4543 36.7032 11.8061 37.0558C12.158 37.4085 12.6352 37.6066 13.1327 37.6066C13.6303 37.6066 14.1075 37.4085 14.4593 37.0558C14.8112 36.7032 15.0088 36.2249 15.0088 35.7262V33.8459C15.0088 33.3472 14.8112 32.8689 14.4593 32.5163C14.1075 32.1637 13.6303 31.9656 13.1327 31.9656ZM18.7611 26.3246C18.2635 26.3246 17.7863 26.5227 17.4345 26.8753C17.0826 27.228 16.885 27.7062 16.885 28.2049V30.0852C16.885 30.5839 17.0826 31.0622 17.4345 31.4148C17.7863 31.7675 18.2635 31.9656 18.7611 31.9656C19.2586 31.9656 19.7358 31.7675 20.0877 31.4148C20.4395 31.0622 20.6372 30.5839 20.6372 30.0852V28.2049C20.6372 27.7062 20.4395 27.228 20.0877 26.8753C19.7358 26.5227 19.2586 26.3246 18.7611 26.3246ZM7.50442 26.3246C7.00685 26.3246 6.52966 26.5227 6.17782 26.8753C5.82598 27.228 5.62832 27.7062 5.62832 28.2049V30.0852C5.62832 30.5839 5.82598 31.0622 6.17782 31.4148C6.52966 31.7675 7.00685 31.9656 7.50442 31.9656C8.002 31.9656 8.47919 31.7675 8.83103 31.4148C9.18287 31.0622 9.38053 30.5839 9.38053 30.0852V28.2049C9.38053 27.7062 9.18287 27.228 8.83103 26.8753C8.47919 26.5227 8.002 26.3246 7.50442 26.3246Z" fill="#488873"/>
</svg>
