<svg width="214" height="199" viewBox="0 0 214 199" fill="none" xmlns="http://www.w3.org/2000/svg">
<path id="Vector" d="M206.147 147.719C199.276 140.065 187.823 150.015 194.695 157.669C203.093 168.385 196.222 183.692 183.242 183.692H137.432V168.385H142.013C160.337 168.385 175.607 153.077 175.607 134.708C175.607 118.635 164.154 104.858 148.884 101.796L105.364 93.3769C101.547 92.6115 99.2561 89.55 99.2561 85.7231V76.5385H64.8982C62.6077 76.5385 61.0807 75.0077 61.0807 72.7115V65.0577C61.0807 62.7615 62.6077 61.2308 64.8982 61.2308H99.2561V38.2692H64.8982C62.6077 38.2692 61.0807 36.7385 61.0807 34.4423V26.7885C61.0807 24.4923 62.6077 22.9615 64.8982 22.9615H99.2561V0H15.2702V153.077C15.2702 161.496 22.1418 168.385 30.5403 168.385H45.8105V183.692H7.63509C3.05403 183.692 0 186.754 0 191.346C0 195.938 3.05403 199 7.63509 199H183.242C209.965 199 223.708 167.619 206.147 147.719ZM61.0807 168.385H122.161V183.692H61.0807V168.385Z" fill="white"/>
</svg>
