<svg width="213" height="278" viewBox="0 0 213 278" fill="none" xmlns="http://www.w3.org/2000/svg">
<path d="M63.8854 223.075L60.6174 212.684C60.5893 212.593 60.5326 212.512 60.4556 212.455C60.3786 212.398 60.2853 212.367 60.1894 212.367C51.4171 212.358 42.6045 212.352 33.7516 212.35C31.7754 212.35 30.3743 212.193 29.5483 211.88C23.623 209.634 23.8336 200.868 29.8313 198.798C30.8988 198.429 32.6393 198.253 35.0526 198.27C42.3595 198.316 49.6721 198.312 56.9904 198.259C57.0455 198.259 57.0998 198.246 57.1494 198.222C57.199 198.198 57.2426 198.163 57.277 198.12C57.3115 198.077 57.3358 198.026 57.3483 197.972C57.3608 197.918 57.3611 197.861 57.3493 197.807L55.2511 188.106C55.24 188.055 55.2117 188.008 55.1708 187.975C55.13 187.941 55.0791 187.923 55.0268 187.924C39.8035 187.94 24.5491 187.939 9.26359 187.92C7.74286 187.92 6.44185 187.682 5.36055 187.206C-1.90027 184.01 0.44638 174.154 8.23865 174.006C12.672 173.923 16.9581 173.898 21.0969 173.93C30.6423 173.999 40.1911 173.875 49.7365 173.882C50.4244 173.882 51.378 173.846 52.5973 173.775C52.7262 173.768 52.7825 173.7 52.7664 173.571C52.3224 170.166 51.9647 166.725 51.6932 163.249C51.6872 163.187 51.6589 163.13 51.6137 163.088C51.5684 163.046 51.5095 163.022 51.4482 163.021C44.4427 162.989 37.1014 162.994 29.4241 163.035C27.5698 163.044 26.1733 162.88 25.2346 162.542C19.9202 160.63 18.8193 153.2 23.837 150.215C25.1185 149.453 26.5449 149.07 28.1162 149.066C35.4829 149.047 42.9231 149.011 50.437 148.955C50.455 148.955 50.4728 148.952 50.4893 148.945C50.5059 148.938 50.5209 148.928 50.5334 148.915C50.546 148.902 50.5558 148.887 50.5624 148.87C50.5689 148.853 50.5721 148.835 50.5716 148.817C50.3462 140.924 50.3611 132.913 50.6165 124.785C50.6174 124.766 50.6144 124.747 50.6078 124.73C50.6011 124.712 50.5908 124.696 50.5776 124.683C50.5643 124.669 50.5484 124.658 50.5308 124.651C50.5131 124.644 50.4942 124.64 50.475 124.64C38.1965 124.589 25.8409 124.589 13.4082 124.64C10.606 124.654 8.53543 124.208 6.83066 122.169C4.39428 119.256 4.57373 115.222 7.36556 112.662C8.80346 111.348 10.5911 110.697 12.7284 110.708C25.1334 110.775 37.8744 110.761 50.9512 110.667C51.0425 110.666 51.1303 110.631 51.1973 110.569C51.2644 110.506 51.3058 110.421 51.3136 110.329C52.0682 100.5 53.3669 91.0378 55.2097 81.9411C56.222 76.9487 57.7554 71.089 59.8098 64.3619C60.4701 62.2016 61.2052 60.0206 62.015 57.8189C67.8782 41.8651 76.3192 26.6291 87.2899 13.6466C88.4724 12.2478 89.7205 10.8846 91.0341 9.55716C93.2117 7.34854 95.3927 5.17444 98.0499 3.51453C102.802 0.539798 108.365 0.118781 113.314 2.57932C116.847 4.33931 120.002 7.31404 122.759 10.2853C133.509 21.8736 141.967 35.574 148.12 50.3061C151.525 58.4665 154.271 66.6936 156.357 74.9874C157.065 77.8034 157.645 80.823 158.318 83.7287C158.831 85.9465 159.309 88.5474 159.753 91.5313C161.191 101.215 162.11 110.437 162.51 119.198C162.968 129.215 162.986 138.929 162.562 148.341C162.172 156.972 161.182 165.789 160.05 174.586C158.63 185.638 156.505 196.558 153.673 207.346C150.852 218.083 147.36 228.276 143.195 237.925C142.618 239.261 141.28 242.068 139.182 246.345C136.1 252.626 132.235 258.62 128.173 264.311C126.669 266.42 124.883 268.478 122.818 270.484C119.484 273.721 115.481 275.74 111.005 276.641C104.106 278.028 96.7696 275.906 91.4759 271.547C90.0288 270.358 88.6564 268.988 87.3589 267.437C83.3189 262.608 79.7161 257.215 76.5505 251.259C74.1624 246.771 71.9089 242.228 69.79 237.631C69.7735 237.595 69.7472 237.565 69.7141 237.543C69.6811 237.522 69.6427 237.51 69.6037 237.51C53.9156 237.52 38.262 237.527 22.643 237.531C19.4543 237.531 16.8074 236.91 14.8749 234.187C13.3219 232.003 13.1321 228.645 14.7506 226.405C15.9078 224.804 17.5344 223.824 19.6303 223.465C20.1617 223.375 21.1959 223.332 22.7327 223.334C36.3318 223.345 50.0034 223.322 63.7474 223.265C63.8785 223.265 63.9245 223.202 63.8854 223.075ZM82.6897 49.2225C77.8929 58.5815 74.2487 68.4547 71.7812 78.5557C71.1624 81.0887 70.5205 84.0381 69.8556 87.404C69.4001 89.7092 69.0262 91.9742 68.734 94.1989C68.3705 96.9666 68.0024 99.7975 67.6297 102.692C66.6565 110.206 66.1573 117.905 66.132 125.789C66.132 125.973 66.2194 126.092 66.3943 126.144C69.2965 127.007 72.4783 127.908 75.3081 128.225C78.7108 128.605 82.2917 128.292 86.051 127.287C87.8478 126.808 89.5916 126.309 91.2826 125.789C95.617 124.457 99.6167 124.043 103.903 124.56C107.737 125.023 111.705 126.476 115.581 127.546C121.88 129.287 128.379 129.485 135.079 128.139C139.04 127.343 142.919 126.501 146.715 125.613C146.811 125.59 146.896 125.537 146.957 125.46C147.017 125.384 147.05 125.289 147.05 125.192C147.025 113.286 145.921 101.411 143.737 89.5677C142.113 80.7678 139.961 72.6465 137.28 65.2039C134.469 57.4025 130.919 49.7057 126.631 42.1135C123.504 36.5805 119.908 31.3454 115.843 26.4082C112.893 22.8192 110.011 19.3268 106.691 16.183C106.625 16.1201 106.537 16.0859 106.446 16.0878C106.355 16.0897 106.268 16.1277 106.205 16.1934C96.8387 25.9527 88.7738 37.3547 82.6897 49.2225ZM121.655 142.55C116.913 142.119 112.233 140.473 107.637 139.061C106.13 138.597 104.9 138.293 103.948 138.15C100.209 137.587 96.5419 137.849 92.946 138.937C90.6407 139.637 88.3712 140.314 86.1372 140.97C81.3933 142.366 76.6448 142.562 71.8917 141.556C69.9476 141.147 68.053 140.668 66.2079 140.121C66.1768 140.111 66.1439 140.11 66.1119 140.116C66.08 140.122 66.0499 140.135 66.0242 140.155C65.9985 140.175 65.978 140.201 65.9643 140.23C65.9507 140.26 65.9443 140.292 65.9456 140.324L66.27 149.252C66.2722 149.319 66.2946 149.383 66.3342 149.437C66.3737 149.49 66.4284 149.529 66.4909 149.549C68.4165 150.174 70.3836 150.829 72.3851 151.23C77.2234 152.198 82.0375 151.951 86.8274 150.488C89.441 149.689 91.7991 149.034 93.9019 148.521C98.5216 147.389 103.347 147.483 108.379 148.803C112.223 149.811 116.143 151.223 120.005 151.685C124.512 152.221 128.875 152.181 133.094 151.564C136.877 151.01 141.36 150.061 146.543 148.717C146.69 148.68 146.766 148.586 146.771 148.434L146.957 139.614C146.962 139.455 146.886 139.393 146.729 139.427C143.382 140.2 140.068 140.936 136.787 141.636C131.776 142.706 126.732 143.01 121.655 142.55ZM86.5479 164.326C83.2971 165.26 79.8553 165.666 76.2226 165.544C73.2341 165.444 70.4975 164.73 67.6435 163.915C67.6113 163.907 67.5775 163.906 67.545 163.913C67.5125 163.921 67.4823 163.936 67.4571 163.958C67.4319 163.98 67.4124 164.007 67.4004 164.038C67.3884 164.069 67.3842 164.103 67.3881 164.136L68.5649 173.319C68.581 173.439 68.6466 173.518 68.7616 173.557C74.2786 175.432 79.9002 175.654 85.6265 174.223C87.5199 173.752 89.3834 173.257 91.217 172.739C93.6028 172.068 95.4836 171.642 96.8594 171.463C100.867 170.945 104.977 171.305 109.19 172.543C110.777 173.007 112.467 173.482 114.259 173.968C120.871 175.762 127.563 176.087 134.333 174.941C137.345 174.433 140.587 173.829 144.058 173.129C144.149 173.111 144.232 173.065 144.295 172.998C144.358 172.93 144.398 172.845 144.41 172.753L145.673 163.256C145.696 163.074 145.618 163.002 145.439 163.039C142.915 163.552 140.461 164.063 138.078 164.571C130.748 166.134 122.262 166.607 115.215 164.716C112.891 164.092 110.55 163.429 108.192 162.725C102.935 161.156 97.683 161.125 92.4352 162.631C90.4061 163.216 88.4436 163.781 86.5479 164.326ZM71.0772 188.141C71.0289 188.13 70.9955 188.147 70.9771 188.193C70.9173 188.349 70.9093 188.528 70.953 188.728C71.6317 191.845 72.3782 195.03 73.1927 198.283C73.2295 198.433 73.3238 198.497 73.4756 198.477C75.0677 198.26 76.7023 198.103 78.3795 198.004C82.9209 197.735 87.4624 198.39 91.7795 199.919C95.6446 201.289 99.6581 202.597 103.713 203.225C107.967 203.888 112.329 203.556 116.799 202.231C119.774 201.352 122.944 200.375 126.31 199.298C129.45 198.295 132.741 197.877 136.183 198.045C137.419 198.105 138.607 198.163 139.748 198.218C139.962 198.227 140.095 198.128 140.148 197.921C141.018 194.487 141.542 190.943 142.212 187.53C142.228 187.445 142.194 187.411 142.108 187.427C138.754 188.072 135.313 188.817 131.983 189.024C128.512 189.241 125.057 189.253 121.62 189.062C120.164 188.982 118.534 188.762 116.73 188.403C114.945 188.047 113.318 187.651 111.85 187.216C108.733 186.291 106.738 185.736 105.866 185.549C101.465 184.606 96.9663 184.827 92.3697 186.212C89.9057 186.953 87.4463 187.604 84.9915 188.165C80.4086 189.211 75.7084 189.125 71.0772 188.141ZM76.5988 212.632L80.1015 222.765C80.123 222.829 80.166 222.885 80.2236 222.923C80.2812 222.96 80.3501 222.978 80.419 222.972C84.0586 222.636 87.6775 222.908 91.2757 223.789C94.2056 224.507 97.4184 225.77 100.138 226.24C104.458 226.98 108.688 227 112.827 226.298C117.551 225.494 122.079 223.462 126.679 223.003C128.644 222.807 130.606 222.769 132.566 222.889C132.648 222.895 132.73 222.873 132.798 222.827C132.866 222.78 132.917 222.712 132.943 222.633L136.2 212.684C136.281 212.443 136.197 212.295 135.948 212.243C133.478 211.694 130.406 212.377 127.438 213.181C125.007 213.839 122.338 214.631 119.432 215.555C114.811 217.029 110.377 217.367 105.456 217.153C102.693 217.034 100.188 216.629 97.943 215.939C95.2167 215.103 92.2615 214.192 89.0774 213.205C84.9432 211.922 80.8665 211.593 76.8472 212.218C76.8017 212.225 76.7582 212.242 76.72 212.268C76.6817 212.294 76.6496 212.328 76.6259 212.367C76.6022 212.407 76.5874 212.451 76.5828 212.497C76.5781 212.543 76.5835 212.589 76.5988 212.632ZM95.0028 238.57C93.3532 237.992 91.867 237.628 90.5441 237.476C89.3846 237.343 88.3654 237.582 87.4866 238.194C87.4116 238.246 87.3581 238.324 87.3359 238.413C87.3137 238.502 87.3243 238.595 87.3658 238.677C90.7546 245.498 94.7543 251.754 99.3648 257.443C100.089 258.338 101.096 259.322 102.384 260.394C105.922 263.337 109.228 261.961 112.092 259.179C113.458 257.852 114.525 256.677 115.291 255.656C119.331 250.263 122.782 244.802 125.644 239.274C125.711 239.144 125.731 238.995 125.702 238.853C125.672 238.71 125.595 238.582 125.482 238.491C124.081 237.362 121.344 237.676 119.815 238.17C117.908 238.788 116.08 239.285 114.332 239.66C107.639 241.098 101.196 240.735 95.0028 238.57Z" fill="white"/>
<path d="M102.219 87.0037C102.166 68.2534 102.161 50.1968 102.205 32.8339C102.215 29.7971 105.276 27.9335 108.092 28.9654C110.197 29.7384 110.584 31.6571 110.584 33.669C110.586 52.4216 110.575 70.2814 110.549 87.2487C110.549 87.5501 110.651 87.5892 110.853 87.366C112.544 85.5094 114.214 83.5423 116.04 81.7375C117.004 80.7827 117.898 80.2329 118.721 80.0879C121.665 79.5634 124.274 81.9307 123.918 84.9331C123.847 85.5543 123.459 86.2226 122.755 86.9381C119.019 90.7434 115.181 94.8189 111.24 99.1648C110.874 99.5686 110.636 99.7964 110.625 100.38C110.549 104.118 110.519 108.022 110.536 112.092C110.545 113.875 109.829 115.154 108.389 115.93C104.959 117.783 102.091 115.008 102.115 111.588C102.14 108.032 102.169 104.338 102.201 100.507C102.208 99.7101 101.891 99.3167 101.397 98.7818C98.4664 95.5908 95.2949 92.2871 91.8831 88.8706C90.7891 87.7732 89.0429 86.134 89.0326 84.5397C89.0119 81.3751 91.5794 79.4806 94.6025 80.1052C95.2489 80.2386 95.8379 80.586 96.3693 81.1474C98.2007 83.0868 100.083 85.0665 102.015 87.0865C102.153 87.2291 102.221 87.2015 102.219 87.0037Z" fill="white"/>
<path d="M212.204 260.321C210.518 265.594 207.174 269.324 202.172 271.509C200.744 272.135 199.287 272.653 197.803 273.062C191.865 274.447 185.877 274.747 179.838 273.963C174.106 273.218 168.46 271.32 164.578 266.833C161.364 263.113 159.895 258.59 160.171 253.264C160.371 249.424 160.862 245.6 161.644 241.79C163.349 233.471 165.47 225.744 168.008 218.61C168.85 216.244 169.901 213.726 171.162 211.055C173.243 206.645 176.021 202.376 179.738 199.401C179.917 199.259 180.007 199.085 180.007 198.88C180.023 154.982 180.026 104.958 180.017 48.8084C180.017 48.79 180.013 48.7717 180.006 48.7548C179.999 48.7378 179.988 48.7224 179.975 48.7096C179.961 48.6967 179.945 48.6866 179.927 48.6799C179.91 48.6731 179.891 48.6699 179.872 48.6704C177.949 48.7164 176.022 48.7095 174.092 48.6497C169.333 48.5013 165.961 43.9287 167.473 39.3148C168.198 37.1016 169.717 35.551 172.032 34.6629C172.839 34.3523 174.469 34.1959 176.922 34.1936C183.923 34.189 190.818 34.1878 197.607 34.1901C199.443 34.1924 200.755 34.3328 201.544 34.6111C204.757 35.7465 207.142 38.8282 206.559 42.3309C205.817 46.8034 202.476 48.7221 198.242 48.6911C196.454 48.6773 194.782 48.6497 193.224 48.6082C193.202 48.6073 193.18 48.6108 193.16 48.6186C193.139 48.6263 193.121 48.6381 193.105 48.6532C193.089 48.6684 193.076 48.6866 193.068 48.7067C193.059 48.7269 193.055 48.7486 193.055 48.7704C193.004 60.2829 192.985 70.5817 192.996 79.6669C193.048 118.815 193.017 158.625 193.038 198.877C193.038 198.976 193.062 199.073 193.107 199.16C193.153 199.246 193.219 199.32 193.3 199.374C193.746 199.673 194.16 200.01 194.542 200.385C197.02 202.803 199.088 205.557 200.747 208.647C203.032 212.903 204.822 217.16 206.117 221.419C207.104 224.669 208.098 227.896 208.916 231.223C209.858 235.064 210.903 239.143 211.562 242.79C212.138 245.97 212.584 249.315 212.901 252.826C213.131 255.38 212.899 257.878 212.204 260.321Z" fill="white"/>
</svg>
