<svg width="39" height="38" viewBox="0 0 39 38" fill="none" xmlns="http://www.w3.org/2000/svg">
<path fill-rule="evenodd" clip-rule="evenodd" d="M34.7545 5.50681L18.473 21.7882L23.709 34.6909L34.7545 5.50681ZM16.8331 20.1483L33.1145 3.86687L3.92442 14.9146L16.8331 20.1483ZM38.2969 2.69919L25.4403 36.6685L25.4338 36.6854C25.2954 37.0346 25.0533 37.333 24.7402 37.5406C24.4271 37.7481 24.058 37.8548 23.6825 37.8463C23.3069 37.8378 22.943 37.7145 22.6396 37.493C22.3466 37.279 22.1237 36.9834 21.9985 36.6436L16.2828 22.5587C16.2736 22.5361 16.2651 22.5131 16.2574 22.4899C16.2476 22.4606 16.2311 22.4339 16.2093 22.4121C16.1874 22.3902 16.1608 22.3738 16.1314 22.364C16.1083 22.3563 16.0855 22.3478 16.0629 22.3387L1.98245 16.6298C1.641 16.5066 1.34329 16.285 1.12725 15.9924C0.90206 15.6875 0.776603 15.3204 0.768047 14.9414C0.759491 14.5625 0.868254 14.1901 1.07945 13.8753C1.29065 13.5605 1.59397 13.3187 1.94789 13.1829L1.9528 13.181L1.9528 13.181L35.9221 0.324478C35.9229 0.324199 35.9236 0.32392 35.9243 0.323642C36.2555 0.197479 36.616 0.169657 36.9626 0.243546C37.3099 0.317599 37.6284 0.490647 37.8796 0.741779C38.1307 0.992911 38.3037 1.31139 38.3778 1.65875C38.4517 2.00534 38.4239 2.3659 38.2977 2.69703C38.2974 2.69775 38.2971 2.69847 38.2969 2.69919Z" fill="white"/>
</svg>
