<svg width="212" height="269" viewBox="0 0 212 269" fill="none" xmlns="http://www.w3.org/2000/svg">
<path d="M172.725 146.409C173.662 151.488 172.451 155.902 169.092 159.649C166.997 161.982 164.689 163.978 162.168 165.637C156.367 169.463 150.162 172.53 143.553 174.84C137.8 176.85 131.772 178.8 125.47 180.691C121.453 181.897 118.221 182.949 115.771 183.849C109.911 186 104.428 188.033 99.1085 191.278C94.4688 194.109 89.9774 197.951 87.6269 202.903C84.7858 208.905 85.2849 215.076 89.124 221.416C91.6653 225.619 94.6698 229.254 98.1376 232.32C106.681 239.76 116.414 245.702 127.335 250.148C132.101 252.086 136.498 253.723 140.528 255.058C143.649 256.09 149.99 257.932 159.552 260.582C166.038 262.384 172.553 264.314 179.097 266.371C179.679 266.555 180.526 266.911 181.636 267.439C181.871 267.572 182.023 267.717 182.091 267.873C182.169 268.057 182.117 268.189 181.933 268.267C181.79 268.325 181.6 268.357 181.365 268.364C167.419 268.425 153.463 268.415 139.496 268.333C138.999 268.33 138.51 268.253 138.03 268.103C122.956 263.469 108.95 257.414 96.3186 248.487C87.1721 242.023 79.2469 234.221 74.5203 224.078C70.0595 213.214 70.4836 202.647 77.2438 193.051C83.258 184.595 91.5307 178.826 101.045 175.034C108.703 171.979 116.867 169.132 125.536 166.496C130.06 165.12 133.303 164.077 135.265 163.369C140.952 161.309 146.68 159.082 151.923 156.046C153.895 154.902 159.296 151.008 157.809 148.535C156.619 146.558 154.805 145.096 152.654 144.003C150.399 142.855 148.089 141.88 145.725 141.08C145.684 141.065 145.64 141.062 145.597 141.07C145.554 141.078 145.515 141.098 145.482 141.126C145.449 141.155 145.424 141.192 145.411 141.233C145.397 141.274 145.394 141.318 145.403 141.361C146.098 144.774 145.556 147.513 143.405 150.134C140.217 154.023 135.189 156.665 130.043 158.555C125.717 160.143 122.264 161.282 119.685 161.974C113.383 163.66 107.058 165.409 100.708 167.221C94.1708 169.085 87.7274 170.924 81.3776 172.74C75.481 174.43 69.1687 176.845 62.4409 179.986C53.0287 184.027 43.8516 190.374 37.96 198.922C37.6398 199.386 37.0113 200.479 36.0745 202.203C33.9114 206.372 32.869 210.598 32.9473 214.88C33.1108 223.373 36.7132 230.424 42.2624 236.729C50.128 245.665 59.3648 253.169 69.9726 259.243C72.4492 260.664 74.9427 262.096 77.4533 263.54C80.0644 265.043 82.6959 266.269 85.3581 267.516C86.2915 267.952 86.2438 268.206 85.2151 268.277C84.7211 268.311 83.9938 268.333 83.0332 268.344C75.3243 268.432 67.617 268.461 59.9115 268.43C59.7719 268.43 59.5198 268.371 59.1553 268.252C58.9236 268.173 58.692 268.063 58.4604 267.919C49.8044 262.551 41.8911 256.245 34.7204 249.003C29.5034 243.735 24.5827 237.276 21.9154 230.506C17.4648 219.223 17.7407 206.27 23.6373 195.483C29.3875 186.003 37.0181 178.512 46.5291 173.011C49.026 171.566 52.1566 169.947 55.9208 168.151C62.9587 164.99 70.1634 162.28 77.5351 160.022C84.8284 157.784 92.1337 155.743 99.4509 153.9C99.5589 153.873 99.6544 153.81 99.7221 153.723C99.7898 153.636 99.8256 153.529 99.8239 153.42L99.7012 132.506C99.7015 132.461 99.6851 132.418 99.655 132.384C99.6249 132.35 99.5832 132.328 99.5377 132.322L65.471 127.968C65.423 127.963 65.3786 127.94 65.3465 127.903C65.3144 127.866 65.2968 127.818 65.2972 127.769L65.2768 114.851C65.2768 114.504 65.4488 114.363 65.7929 114.427C73.1441 115.787 79.8702 116.805 85.9713 117.483C90.5394 117.991 95.0854 118.57 99.6093 119.22C99.6304 119.223 99.652 119.222 99.6725 119.216C99.6929 119.21 99.7118 119.2 99.7278 119.186C99.7439 119.173 99.7566 119.156 99.7653 119.137C99.7739 119.118 99.7782 119.098 99.7779 119.077L99.7523 103.865C99.7523 103.8 99.7265 103.738 99.6805 103.692C99.6345 103.646 99.5721 103.62 99.5071 103.62C94.9015 103.607 90.2601 103.581 85.583 103.544C82.9497 103.52 81.2737 102.298 80.555 99.8799C79.3337 95.7665 81.0915 91.1422 85.9611 91.1217C90.8801 91.1013 95.3665 91.0911 99.4202 91.0911C99.5151 91.0911 99.606 91.0534 99.6731 90.9863C99.7402 90.9192 99.7779 90.8283 99.7779 90.7334L99.7677 79.0167C99.7677 78.934 99.7343 78.8548 99.6749 78.7963C99.6155 78.7379 99.5349 78.705 99.4509 78.705L75.7416 78.7101C75.7036 78.7101 75.6664 78.6995 75.6341 78.6796C75.6018 78.6596 75.5757 78.6311 75.5588 78.5971C75.5418 78.5632 75.5346 78.5252 75.538 78.4874C75.5414 78.4496 75.5553 78.4135 75.5781 78.3831C78.5775 74.2902 81.628 69.349 84.1011 65.7875C89.1019 58.593 94.0754 51.3814 99.0216 44.1528C99.5667 43.3557 99.8239 42.6625 99.7932 42.0731C99.7455 41.1977 99.6876 40.3409 99.6195 39.5029C99.6058 39.2849 99.4883 39.1776 99.2669 39.181L79.1907 39.2066C79.1517 39.2061 79.1135 39.1951 79.0803 39.1746C79.0471 39.1541 79.0201 39.1249 79.0023 39.0903C78.9844 39.0556 78.9763 39.0167 78.9789 38.9777C78.9815 38.9388 78.9946 38.9013 79.0169 38.8693C86.8723 27.6755 94.6375 16.4988 102.312 5.33908C103.539 3.55748 104.804 1.82527 106.109 0.142455C106.144 0.09684 106.19 0.0601845 106.242 0.0354585C106.294 0.0107324 106.351 -0.0013693 106.409 0.000123029C106.467 0.00161535 106.523 0.0166616 106.574 0.0440506C106.625 0.0714396 106.669 0.110401 106.702 0.157784C111.144 6.41213 115.552 12.6801 119.926 18.9617C124.565 25.6248 129.328 32.0478 133.85 38.9051C134.023 39.1674 133.954 39.2969 133.64 39.2934L113.671 38.9613C113.269 38.9545 113.06 39.1538 113.043 39.5591C113.002 40.5573 112.992 41.4685 113.012 42.2929C113.043 43.7134 113.794 44.6638 114.555 45.7624C122.016 56.5406 129.658 67.3511 137.483 78.194C137.677 78.4631 137.609 78.6233 137.278 78.6744C136.955 78.7255 136.645 78.751 136.348 78.751C128.674 78.7544 120.999 78.7408 113.324 78.7101C113.257 78.7101 113.194 78.7365 113.147 78.7835C113.1 78.8304 113.073 78.8941 113.073 78.9605L113.089 90.8151C113.089 90.887 113.117 90.9559 113.168 91.0066C113.219 91.0574 113.288 91.086 113.36 91.086C118.388 91.086 123.438 91.086 128.51 91.086C134.626 91.086 135.694 100.202 131.167 102.966C130.445 103.406 129.396 103.624 128.02 103.62C123.08 103.613 118.159 103.605 113.257 103.595C113.091 103.595 113.007 103.68 113.007 103.85L113.068 120.37C113.068 120.806 113.283 121.051 113.712 121.106C126.328 122.766 138.213 124.759 150.083 128.413C159.138 131.203 170.298 136.318 172.725 146.409ZM126.231 137.396C122.504 135.91 118.173 134.856 113.237 134.233C113.033 134.206 112.932 134.294 112.936 134.498L113.068 149.368C113.068 149.586 113.176 149.669 113.39 149.618C118.684 148.341 124.412 146.731 129.236 143.819C129.995 143.362 130.631 142.793 131.142 142.112C131.311 141.887 131.396 141.61 131.382 141.328C131.368 141.046 131.256 140.777 131.065 140.569C129.869 139.261 128.258 138.203 126.231 137.396Z" fill="white"/>
<path d="M196.741 152.464C199.97 152.495 203.203 152.497 206.439 152.469C212.106 152.429 213.067 159.173 211.002 163.057C209.894 165.142 208.1 165.366 205.729 165.356C198.555 165.315 191.381 165.268 184.207 165.213C183.512 165.21 182.946 164.944 182.51 164.416C182.057 163.864 181.841 163.011 181.861 161.856C181.93 158.184 181.95 154.539 181.923 150.921L181.918 110.294C181.918 110.256 181.903 110.219 181.876 110.192C181.849 110.166 181.812 110.15 181.775 110.15L167.83 110.156C167.776 110.155 167.723 110.141 167.676 110.115C167.629 110.088 167.589 110.05 167.561 110.004C167.533 109.958 167.517 109.905 167.515 109.851C167.513 109.797 167.525 109.744 167.549 109.696C170.683 103.636 174.093 97.7252 177.779 91.9648C179.307 89.5786 180.681 86.9572 182.183 84.479C182.2 84.4528 182.208 84.4228 182.209 84.392C182.209 84.3612 182.201 84.3307 182.185 84.3037C182.17 84.2767 182.147 84.2541 182.12 84.2382C182.093 84.2223 182.062 84.2137 182.03 84.2133H166.583C166.563 84.2133 166.544 84.2173 166.525 84.2251C166.507 84.2328 166.49 84.2442 166.477 84.2585C166.463 84.2728 166.452 84.2897 166.445 84.3083C166.438 84.3269 166.434 84.3467 166.435 84.3666C166.544 95.6285 166.588 107.117 166.568 118.832C166.564 120.426 166.13 121.716 165.265 122.7C163.476 124.729 159.849 125.214 157.554 124.345C155.381 123.521 154.105 122.044 153.727 119.915C153.645 119.459 153.608 118.365 153.615 116.635C153.656 105.897 153.678 95.172 153.681 84.4586C153.681 84.4193 153.665 84.3816 153.638 84.3538C153.61 84.326 153.572 84.3104 153.533 84.3104L139.246 84.3155C139.182 84.3152 139.119 84.2983 139.063 84.2666C139.008 84.2349 138.961 84.1894 138.929 84.1347C138.896 84.0799 138.879 84.0178 138.878 83.9545C138.877 83.8912 138.893 83.829 138.924 83.7739C143.301 75.8401 148.151 67.4567 153.472 58.6236C153.521 58.5413 153.537 58.4429 153.515 58.3493C153.493 58.2557 153.435 58.1744 153.354 58.1229C153.255 58.0581 153.145 58.0275 153.022 58.0309C148.287 58.0922 143.632 58.1229 139.057 58.1229C138.669 58.1229 138.577 57.9576 138.781 57.6272C142.736 51.1889 146.706 44.8596 150.692 38.6393C153.267 34.6231 156.522 29.2527 159.797 24.8532C160.131 24.407 160.446 24.4206 160.743 24.8941L181.371 57.6834C181.397 57.724 181.412 57.7709 181.414 57.8192C181.415 57.8675 181.404 57.9156 181.38 57.9583C181.357 58.001 181.322 58.0369 181.28 58.0623C181.238 58.0876 181.19 58.1015 181.141 58.1024L165.95 58.1382C165.935 58.1381 165.921 58.1417 165.908 58.1489C165.896 58.156 165.886 58.1663 165.878 58.1787C165.871 58.1912 165.867 58.2053 165.867 58.2198C165.867 58.2342 165.871 58.2483 165.878 58.2608C168.416 62.8835 171.114 67.3954 173.972 71.7966C174.02 71.8681 174.066 71.9277 174.11 71.9754C174.156 72.0257 174.214 72.0644 174.277 72.0887C174.341 72.1129 174.41 72.1219 174.478 72.1149C174.546 72.108 174.611 72.0853 174.669 72.0486C174.726 72.012 174.775 71.9624 174.81 71.9039C178.922 65.1045 183.095 58.3273 187.329 51.5722C187.63 51.0867 187.988 50.3662 188.473 50.0903C188.623 50.0034 188.801 49.9782 188.97 50.0201C189.138 50.062 189.285 50.1678 189.378 50.3151L210.824 83.9374C210.847 83.9751 210.86 84.0184 210.862 84.0628C210.863 84.1073 210.852 84.1513 210.831 84.1903C210.81 84.2294 210.778 84.262 210.74 84.2849C210.702 84.3078 210.658 84.3201 210.614 84.3206L195.837 84.2746C195.683 84.2746 195.644 84.341 195.719 84.4739C196.789 86.4224 197.908 88.3471 199.076 90.2479C202.902 96.4886 206.743 102.714 210.599 108.924C211.031 109.616 210.839 109.965 210.021 109.972L195.188 110.11C195.011 110.11 194.922 110.2 194.922 110.38L195.06 152.122C195.06 152.282 195.142 152.367 195.305 152.378L196.741 152.464Z" fill="white"/>
<path d="M53.7544 163.731C52.5792 164.774 50.8419 165.293 48.5425 165.29C34.9062 165.269 21.27 165.244 7.63373 165.213C4.23063 165.203 1.71662 165.295 0.556708 161.989C-0.0769019 160.18 -0.25063 157.421 0.464736 155.612C1.2857 153.534 3.00429 152.505 5.62048 152.526C9.28248 152.556 12.9939 152.548 16.7547 152.5C16.9182 152.497 16.9999 152.415 16.9999 152.255L16.9948 110.646C16.9948 110.483 16.9131 110.401 16.7495 110.401L1.92102 110.391C1.85224 110.391 1.78459 110.373 1.72516 110.338C1.66574 110.304 1.61674 110.254 1.58329 110.194C1.54984 110.134 1.53319 110.066 1.53508 109.997C1.53696 109.928 1.5573 109.861 1.59399 109.803L9.68785 96.6198L22.9783 75.7873C23.0112 75.7359 23.0562 75.6933 23.1094 75.6633C23.1626 75.6333 23.2224 75.6168 23.2834 75.6153C23.3444 75.6138 23.4049 75.6273 23.4595 75.6546C23.5142 75.6819 23.5612 75.7222 23.5966 75.772C26.4853 79.8734 29.1646 84.1588 31.6343 88.6281C31.6664 88.6868 31.7137 88.7357 31.7713 88.7697C31.8288 88.8038 31.8944 88.8217 31.9613 88.8217C32.0281 88.8217 32.0938 88.8038 32.1513 88.7697C32.2088 88.7357 32.2562 88.6868 32.2883 88.6281C33.9337 85.6083 35.533 82.7877 37.5054 79.7014C40.3737 75.2218 43.1159 70.6707 45.7321 66.0481C45.7464 66.0215 45.7538 65.9915 45.7534 65.9613C45.753 65.931 45.745 65.9015 45.73 65.8757C45.715 65.8499 45.6936 65.8286 45.668 65.814C45.6424 65.7995 45.6134 65.7921 45.5839 65.7926L30.7912 65.8284C30.5561 65.8284 30.5033 65.7296 30.6328 65.532C34.0001 60.4325 37.2039 55.1388 40.4742 50.0903C44.3269 44.1392 48.2188 38.1863 52.15 32.2317C52.1815 32.1832 52.2247 32.1434 52.2755 32.1158C52.3264 32.0882 52.3834 32.0737 52.4412 32.0737C52.4991 32.0737 52.556 32.0882 52.6069 32.1158C52.6577 32.1434 52.7009 32.1832 52.7325 32.2317L74.403 65.3736C74.4177 65.3957 74.4272 65.4208 74.4308 65.4471C74.4343 65.4733 74.4318 65.5001 74.4234 65.5252C74.415 65.5504 74.401 65.5733 74.3824 65.5922C74.3638 65.6111 74.3411 65.6255 74.3161 65.6342C74.2718 65.6513 74.2122 65.6785 74.1373 65.716C74.0725 65.75 74.0061 65.7671 73.938 65.7671C68.9679 65.7773 64.0301 65.7875 59.1248 65.7977C59.085 65.7982 59.0461 65.8092 59.012 65.8296C58.9779 65.85 58.9498 65.8791 58.9306 65.9139C58.9114 65.9487 58.9017 65.9879 58.9026 66.0277C58.9035 66.0674 58.9149 66.1062 58.9357 66.1401L74.6533 91.3465C74.7048 91.4283 74.733 91.5225 74.7349 91.6191C74.7369 91.7157 74.7125 91.8112 74.6644 91.8954C74.6162 91.9797 74.5461 92.0496 74.4614 92.0977C74.3768 92.1459 74.2806 92.1706 74.1832 92.1692L59.043 91.8473C58.9102 91.8473 58.8437 91.9137 58.8437 92.0466C58.9051 105.945 58.917 121.116 58.8795 137.559C58.8727 140.199 58.6257 141.988 58.1386 142.924C56.868 145.364 54.6725 146.479 51.5521 146.271C49.0381 146.104 47.2906 144.992 46.3095 142.935C45.5941 141.438 45.6146 139.818 45.6095 138.05C45.5618 122.748 45.5686 107.446 45.6299 92.1437C45.6299 91.9733 45.5447 91.8916 45.3744 91.8984C41.7908 91.9938 38.2531 92.0193 34.7614 91.975C34.4446 91.9716 34.1909 92.0159 34.0001 92.1079C33.9725 92.1211 33.9478 92.1397 33.9276 92.1626C33.9074 92.1854 33.892 92.212 33.8824 92.2407C33.8729 92.2694 33.8693 92.2996 33.872 92.3295C33.8746 92.3594 33.8834 92.3883 33.8979 92.4145C37.209 98.4951 40.9851 104.31 44.6437 110.14C44.6802 110.199 44.7003 110.267 44.7018 110.336C44.7033 110.406 44.6862 110.474 44.6523 110.534C44.6184 110.595 44.5689 110.645 44.509 110.68C44.4491 110.715 44.3809 110.733 44.3116 110.733L30.2649 110.764C30.1797 110.764 30.1371 110.806 30.1371 110.891L30.1933 152.158C30.1933 152.231 30.2222 152.302 30.2738 152.355C30.3254 152.407 30.3956 152.437 30.4692 152.439C36.0559 152.544 41.801 152.558 47.7045 152.48C49.8165 152.452 51.3699 152.699 52.3646 153.221C56.0027 155.132 56.4473 160.706 53.7544 163.731Z" fill="white"/>
</svg>
