<svg width="212" height="202" viewBox="0 0 212 202" fill="none" xmlns="http://www.w3.org/2000/svg">
<g clip-path="url(#clip0_547_579)">
<path d="M33.0985 96.6833C28.0193 79.6438 31.7868 68.0515 43.9891 62.4071C51.9664 58.7049 59.7911 59.3422 67.3565 63.6817C79.9097 70.8737 92.5848 77.8837 104.94 85.3944C109.577 88.2166 113.085 88.7932 117.905 85.6069C125.943 80.2963 134.622 75.9871 142.889 71.0255C148.502 67.657 153.734 67.7936 159.362 71.0862C173.151 79.1734 187.092 87.018 200.957 94.9839C214.944 103.026 215.325 111.568 203.931 119.276C203.931 129.943 205.533 139.699 203.595 148.697C199.645 167.087 183.187 179.711 164.304 179.847C123.35 180.151 82.3806 180.136 41.4114 179.847C21.2165 179.711 4.05703 164.72 0.655635 145.313C-2.80677 125.558 7.96177 106.455 26.8906 98.8834C28.7667 98.1399 30.6886 97.5329 33.1138 96.6681L33.0985 96.6833ZM12.2936 137.196H192.766C192.507 123.085 183.507 110.87 170.192 109.125C159.072 107.669 147.602 108.822 136.254 108.822C137.352 120.111 135.034 122.751 124.006 122.827C114.61 122.887 105.138 122.113 95.8185 122.993C80.413 124.45 66.8685 120.718 54.4068 111.765C45.3924 105.286 35.9203 107.35 27.1347 112.19C17.6016 117.455 12.7359 125.922 12.2631 137.196H12.2936Z" fill="white"/>
<path d="M204.862 191.546V202H0.610107V191.546H204.862Z" fill="white"/>
<path d="M66.3043 23.9584C66.3348 37.3714 55.551 48.0989 42.1742 47.9775C28.9804 47.8561 18.5017 37.4928 18.3186 24.4136C18.1509 10.9702 28.5838 0.227598 42.0979 9.50415e-07C55.3984 -0.227596 66.289 10.5453 66.3195 23.9584H66.3043Z" fill="white"/>
</g>
<defs>
<clipPath id="clip0_547_579">
<rect width="212" height="202" fill="white"/>
</clipPath>
</defs>
</svg>
