<svg width="39" height="40" viewBox="0 0 39 40" fill="none" xmlns="http://www.w3.org/2000/svg">
<path fill-rule="evenodd" clip-rule="evenodd" d="M32.9248 6.52921C31.1659 4.76946 29.0763 3.37499 26.7763 2.42607C24.4763 1.47715 22.0113 0.99252 19.5232 1.00009C9.08161 1.00009 0.581528 9.4577 0.577281 19.8552C0.572662 23.166 1.44538 26.4189 3.10658 29.2827L0.418457 39.05L10.4618 36.4281C13.2418 37.9342 16.3538 38.7224 19.5156 38.7213H19.5232C29.964 38.7213 38.4633 30.2628 38.4684 19.8662C38.4747 17.3867 37.9878 14.9306 37.0361 12.6409C36.0844 10.3513 34.6869 8.27374 32.9248 6.52921ZM19.5232 35.5389H19.5165C16.6979 35.5397 13.9305 34.7854 11.5022 33.3544L10.9272 33.0147L4.96746 34.5706L6.55825 28.7876L6.1837 28.193C4.60767 25.6979 3.77267 22.8064 3.77585 19.8552C3.77585 11.215 10.8431 4.18507 19.5292 4.18507C23.696 4.17763 27.6951 5.82557 30.647 8.76645C33.5988 11.7073 35.2617 15.7003 35.2698 19.8671C35.2664 28.5081 28.2025 35.5389 19.5232 35.5389ZM28.1601 23.802C27.687 23.5659 25.3573 22.4261 24.9258 22.269C24.4944 22.1118 24.1759 22.0329 23.8608 22.5051C23.5457 22.9773 22.6377 24.0339 22.3617 24.3524C22.0857 24.6709 21.8096 24.7057 21.3366 24.4696C20.8635 24.2335 19.3372 23.7366 17.529 22.1314C16.1217 20.882 15.1721 19.3396 14.8961 18.8683C14.6201 18.3969 14.8664 18.1412 15.1033 17.9068C15.3165 17.6953 15.5764 17.3565 15.8134 17.0813C16.0503 16.8061 16.1293 16.609 16.2865 16.2948C16.4436 15.9805 16.3654 15.7054 16.2474 15.4701C16.1293 15.2348 15.1823 12.9153 14.7882 11.9717C14.4035 11.0527 14.0137 11.1776 13.7232 11.1632C13.4472 11.1496 13.1287 11.1462 12.8153 11.1462C12.5757 11.1524 12.3399 11.208 12.1228 11.3094C11.9056 11.4108 11.7117 11.5559 11.5532 11.7356C11.1191 12.2078 9.89611 13.3493 9.89611 15.6663C9.89611 17.9833 11.5948 20.2255 11.8292 20.5397C12.0636 20.854 15.167 25.6128 19.9156 27.6537C20.7974 28.0313 21.6984 28.3625 22.6148 28.6457C23.7487 29.0041 24.7806 28.954 25.5959 28.8326C26.5056 28.6975 28.3987 27.6928 28.792 26.5921C29.1852 25.4913 29.1861 24.5486 29.068 24.3524C28.9499 24.1562 28.634 24.0373 28.1601 23.802Z" fill="white" stroke="white" stroke-width="0.0976562"/>
</svg>
